<svg id="svg" version="1.1" xmlns="http://www.w3.org/2000/svg" xmlns:xlink="http://www.w3.org/1999/xlink" width="400" height="419.84" viewBox="0, 0, 400,419.84"><g id="svgg"><path id="path0" d="M163.671 6.265 L 162.080 7.729 163.760 6.374 C 165.267 5.159,165.630 4.800,165.351 4.800 C 165.302 4.800,164.546 5.459,163.671 6.265 M220.160 5.628 C 220.952 6.079,221.956 6.761,222.390 7.144 C 223.016 7.695,223.083 7.712,222.710 7.225 C 222.176 6.527,219.568 4.798,219.057 4.804 C 218.872 4.806,219.368 5.177,220.160 5.628 M159.505 11.550 C 159.223 12.094,159.050 12.596,159.119 12.666 C 159.188 12.735,159.485 12.290,159.777 11.676 C 160.436 10.296,160.208 10.190,159.505 11.550 M186.240 30.732 C 180.497 31.428,173.674 33.181,169.461 35.044 L 167.680 35.832 167.680 39.278 C 167.680 43.076,167.382 44.554,166.409 45.590 C 165.771 46.270,164.981 49.280,165.441 49.280 C 165.572 49.280,166.310 49.056,167.080 48.783 C 171.120 47.349,178.178 47.008,183.291 48.001 C 185.612 48.452,187.897 48.640,191.040 48.640 C 194.183 48.640,196.468 48.452,198.789 48.001 C 203.902 47.008,210.960 47.349,215.000 48.783 C 215.770 49.056,216.454 49.280,216.520 49.280 C 216.897 49.280,216.547 44.238,216.031 42.220 C 215.695 40.911,215.112 38.456,214.734 36.764 C 213.951 33.258,214.086 33.383,210.000 32.341 C 203.710 30.736,192.485 29.976,186.240 30.732 M153.881 41.079 C 153.507 41.898,153.674 42.880,154.186 42.880 C 154.654 42.880,156.188 41.204,156.064 40.827 C 155.815 40.067,154.260 40.246,153.881 41.079 M156.800 45.760 C 156.800 47.893,156.926 49.280,157.120 49.280 C 157.296 49.280,157.440 50.000,157.440 50.880 C 157.440 51.760,157.584 52.480,157.760 52.480 C 157.936 52.480,158.080 53.056,158.080 53.760 C 158.080 54.464,158.224 55.040,158.400 55.040 C 158.576 55.040,158.720 55.616,158.720 56.320 C 158.720 57.024,158.864 57.600,159.040 57.600 C 159.216 57.600,159.360 58.032,159.360 58.560 C 159.360 59.088,159.504 59.520,159.680 59.520 C 159.856 59.520,160.000 60.096,160.000 60.800 C 160.000 61.504,160.144 62.080,160.320 62.080 C 160.496 62.080,160.640 62.454,160.640 62.912 C 160.640 63.423,161.010 64.089,161.600 64.640 C 162.128 65.133,162.560 65.767,162.560 66.048 C 162.560 66.330,162.704 66.560,162.880 66.560 C 163.058 66.560,163.200 67.413,163.200 68.480 C 163.200 69.547,163.342 70.400,163.520 70.400 C 163.696 70.400,163.840 70.976,163.840 71.680 C 163.840 72.384,163.984 72.960,164.160 72.960 C 164.336 72.960,164.480 73.392,164.480 73.920 C 164.480 74.448,164.624 74.880,164.800 74.880 C 164.976 74.880,165.120 75.456,165.120 76.160 C 165.120 76.864,165.264 77.440,165.440 77.440 C 165.616 77.440,165.760 77.728,165.760 78.080 C 165.760 78.432,165.904 78.720,166.080 78.720 C 166.256 78.720,166.400 79.152,166.400 79.680 C 166.400 80.208,166.544 80.640,166.720 80.640 C 166.896 80.640,167.040 81.072,167.040 81.600 C 167.040 82.128,167.184 82.560,167.360 82.560 C 167.536 82.560,167.680 82.848,167.680 83.200 C 167.680 83.552,167.824 83.840,168.000 83.840 C 168.176 83.840,168.320 84.128,168.320 84.480 C 168.320 84.832,168.464 85.120,168.640 85.120 C 168.816 85.120,168.960 85.408,168.960 85.760 C 168.960 86.112,169.104 86.400,169.280 86.400 C 169.456 86.400,169.600 86.656,169.600 86.969 C 169.600 87.283,169.888 87.746,170.240 88.000 C 170.592 88.254,170.880 88.686,170.880 88.960 C 170.880 89.234,171.168 89.666,171.520 89.920 C 171.872 90.174,172.160 90.637,172.160 90.951 C 172.160 91.264,172.304 91.520,172.480 91.520 C 172.656 91.520,172.800 92.240,172.800 93.120 C 172.800 94.000,172.656 94.720,172.480 94.720 C 172.302 94.720,172.160 95.573,172.160 96.640 C 172.160 97.707,172.018 98.560,171.840 98.560 C 171.662 98.560,171.520 99.413,171.520 100.480 C 171.520 101.547,171.378 102.400,171.200 102.400 C 171.022 102.400,170.880 103.253,170.880 104.320 C 170.880 105.387,170.738 106.240,170.560 106.240 C 170.384 106.240,170.240 106.895,170.240 107.695 C 170.240 109.569,169.211 110.720,167.535 110.720 C 166.911 110.720,166.400 110.864,166.400 111.040 C 166.400 111.216,166.112 111.360,165.760 111.360 C 165.408 111.360,165.120 111.504,165.120 111.680 C 165.120 111.856,164.688 112.000,164.160 112.000 C 163.632 112.000,163.200 112.144,163.200 112.320 C 163.200 112.496,162.758 112.640,162.218 112.640 C 161.349 112.640,161.262 112.723,161.454 113.360 C 161.632 113.947,161.595 114.006,161.252 113.680 C 160.751 113.203,159.360 113.144,159.360 113.600 C 159.360 113.776,158.928 113.920,158.400 113.920 C 157.872 113.920,157.440 114.064,157.440 114.240 C 157.440 114.416,156.993 114.560,156.446 114.560 C 155.767 114.560,155.502 114.691,155.609 114.972 C 155.724 115.271,155.471 115.348,154.684 115.256 C 153.637 115.134,153.170 115.609,154.000 115.952 C 154.220 116.042,153.932 116.036,153.360 115.938 C 152.562 115.801,152.320 115.874,152.320 116.250 C 152.320 116.590,152.115 116.686,151.649 116.565 C 151.066 116.412,151.024 116.469,151.326 116.995 C 151.518 117.328,152.335 119.184,153.142 121.120 C 155.150 125.938,161.694 139.150,162.959 140.941 C 163.091 141.128,164.227 142.864,165.485 144.800 C 175.417 160.094,185.173 166.906,193.920 164.655 C 206.752 161.351,218.636 144.699,225.292 120.696 C 226.008 118.113,226.711 115.711,226.855 115.357 C 227.183 114.549,226.569 113.920,225.454 113.920 C 225.006 113.920,224.640 113.776,224.640 113.600 C 224.640 113.424,224.208 113.280,223.680 113.280 C 223.152 113.280,222.720 113.136,222.720 112.960 C 222.720 112.784,222.144 112.640,221.440 112.640 C 220.736 112.640,220.160 112.496,220.160 112.320 C 220.160 112.144,219.728 112.000,219.200 112.000 C 218.672 112.000,218.240 111.856,218.240 111.680 C 218.240 111.504,217.808 111.360,217.280 111.360 C 216.752 111.360,216.320 111.216,216.320 111.040 C 216.320 110.864,215.888 110.720,215.360 110.720 C 214.832 110.720,214.400 110.576,214.400 110.400 C 214.400 110.224,213.889 110.080,213.265 110.080 C 211.736 110.080,210.560 108.912,210.560 107.393 C 210.560 106.780,210.416 106.189,210.240 106.080 C 209.538 105.646,209.838 91.080,210.560 90.560 C 210.912 90.306,211.200 89.874,211.200 89.600 C 211.200 89.326,211.488 88.894,211.840 88.640 C 212.192 88.386,212.480 87.954,212.480 87.680 C 212.480 87.406,212.768 86.974,213.120 86.720 C 213.472 86.466,213.760 86.003,213.760 85.689 C 213.760 85.376,213.904 85.120,214.080 85.120 C 214.256 85.120,214.400 84.832,214.400 84.480 C 214.400 84.128,214.544 83.840,214.720 83.840 C 214.896 83.840,215.040 83.552,215.040 83.200 C 215.040 82.848,215.184 82.560,215.360 82.560 C 215.536 82.560,215.680 82.128,215.680 81.600 C 215.680 81.072,215.824 80.640,216.000 80.640 C 216.176 80.640,216.320 80.352,216.320 80.000 C 216.320 79.648,216.464 79.360,216.640 79.360 C 216.816 79.360,216.960 78.928,216.960 78.400 C 216.960 77.872,217.104 77.440,217.280 77.440 C 217.456 77.440,217.600 77.008,217.600 76.480 C 217.600 75.952,217.744 75.520,217.920 75.520 C 218.096 75.520,218.240 74.944,218.240 74.240 C 218.240 73.536,218.384 72.960,218.560 72.960 C 218.736 72.960,218.880 72.384,218.880 71.680 C 218.880 70.976,219.024 70.400,219.200 70.400 C 219.376 70.400,219.520 69.824,219.520 69.120 C 219.520 68.416,219.664 67.840,219.840 67.840 C 220.016 67.840,220.160 67.408,220.160 66.880 C 220.160 66.352,220.312 65.920,220.499 65.920 C 220.685 65.920,220.749 65.776,220.640 65.600 C 220.531 65.424,220.667 65.280,220.941 65.280 C 221.227 65.280,221.440 65.006,221.440 64.640 C 221.440 64.288,221.584 64.000,221.760 64.000 C 221.936 64.000,222.080 63.568,222.080 63.040 C 222.080 62.512,222.224 62.080,222.400 62.080 C 222.576 62.080,222.720 61.648,222.720 61.120 C 222.720 60.592,222.864 60.160,223.040 60.160 C 223.216 60.160,223.360 59.584,223.360 58.880 C 223.360 58.176,223.504 57.600,223.680 57.600 C 223.856 57.600,224.000 57.168,224.000 56.640 C 224.000 56.112,224.144 55.680,224.320 55.680 C 224.496 55.680,224.640 55.050,224.640 54.279 C 224.640 53.202,224.799 52.773,225.325 52.423 C 225.888 52.050,225.949 51.852,225.666 51.323 C 225.437 50.896,225.419 50.254,225.613 49.419 C 226.481 45.677,225.799 43.048,223.905 42.827 L 222.836 42.702 222.089 47.120 C 221.308 51.743,220.916 52.555,217.473 56.676 C 217.235 56.960,216.730 58.128,216.350 59.271 C 214.394 65.149,210.796 67.454,204.072 67.136 C 198.182 66.859,195.389 64.197,193.393 56.960 C 192.026 52.006,190.021 52.059,188.605 57.087 C 186.563 64.336,183.832 66.898,177.884 67.144 C 171.639 67.402,168.237 65.484,166.214 60.566 C 165.797 59.551,165.452 58.999,165.448 59.340 C 165.441 59.886,165.322 59.847,164.450 59.020 C 161.754 56.460,161.648 56.198,160.800 50.023 C 159.616 41.402,159.893 42.240,158.225 42.240 L 156.800 42.240 156.800 45.760 M172.320 49.183 C 167.491 49.825,166.583 50.811,166.804 55.173 C 167.141 61.806,169.160 64.634,174.229 65.571 C 181.747 66.961,186.029 63.770,187.258 55.860 C 188.118 50.332,182.519 47.829,172.320 49.183 M199.084 49.588 C 194.047 51.027,193.185 54.958,196.484 61.444 C 198.749 65.898,205.670 67.323,211.189 64.471 C 214.924 62.542,217.145 51.985,214.144 50.433 C 211.301 48.963,202.916 48.492,199.084 49.588 M153.764 59.833 C 153.489 60.278,154.175 61.440,154.712 61.440 C 155.463 61.440,155.616 60.796,155.022 60.140 C 154.398 59.450,154.053 59.366,153.764 59.833 M158.884 75.193 C 158.609 75.638,159.295 76.800,159.832 76.800 C 160.583 76.800,160.736 76.156,160.142 75.500 C 159.518 74.810,159.173 74.726,158.884 75.193 M164.004 85.433 C 163.729 85.878,164.415 87.040,164.952 87.040 C 165.703 87.040,165.856 86.396,165.262 85.740 C 164.638 85.050,164.293 84.966,164.004 85.433 M207.899 93.480 C 203.103 104.224,187.992 108.228,179.854 100.912 C 177.942 99.193,176.045 96.524,174.908 93.953 C 173.975 91.842,174.045 91.780,175.616 93.326 C 183.795 101.382,196.815 101.437,206.008 93.454 C 208.789 91.039,208.988 91.042,207.899 93.480 M164.121 107.639 C 163.747 108.458,163.914 109.440,164.426 109.440 C 164.894 109.440,166.428 107.764,166.304 107.387 C 166.055 106.627,164.500 106.806,164.121 107.639 M219.020 107.232 C 218.688 107.770,220.066 109.022,220.506 108.582 C 220.764 108.324,220.762 108.046,220.498 107.554 C 220.109 106.826,219.371 106.665,219.020 107.232 M148.761 112.759 C 148.387 113.578,148.554 114.560,149.066 114.560 C 149.534 114.560,151.068 112.884,150.944 112.507 C 150.695 111.747,149.140 111.926,148.761 112.759 M229.260 112.352 C 228.928 112.890,230.306 114.142,230.746 113.702 C 231.004 113.444,231.002 113.166,230.738 112.674 C 230.349 111.946,229.611 111.785,229.260 112.352 M124.086 234.472 C 124.661 234.543,125.525 234.542,126.006 234.469 C 126.487 234.396,126.016 234.337,124.960 234.339 C 123.904 234.341,123.511 234.401,124.086 234.472 M10.521 276.599 C 10.147 277.418,10.314 278.400,10.826 278.400 C 11.294 278.400,12.828 276.724,12.704 276.347 C 12.455 275.587,10.900 275.766,10.521 276.599 M20.480 276.183 C 20.480 276.413,21.086 276.453,22.320 276.303 C 24.793 276.003,24.840 275.840,22.453 275.840 C 21.263 275.840,20.480 275.976,20.480 276.183 M41.120 276.000 C 41.878 276.260,50.560 276.367,50.560 276.116 C 50.560 275.964,48.364 275.851,45.680 275.865 C 42.996 275.879,40.944 275.940,41.120 276.000 M75.660 276.192 C 75.328 276.730,76.706 277.982,77.146 277.542 C 77.404 277.284,77.402 277.006,77.138 276.514 C 76.749 275.786,76.011 275.625,75.660 276.192 M322.841 276.599 C 322.467 277.418,322.634 278.400,323.146 278.400 C 323.614 278.400,325.148 276.724,325.024 276.347 C 324.775 275.587,323.220 275.766,322.841 276.599 M346.240 276.095 C 346.240 276.235,348.076 276.300,350.320 276.240 C 356.162 276.083,356.429 275.934,350.960 275.884 C 348.364 275.860,346.240 275.955,346.240 276.095 M372.187 275.955 C 372.526 276.248,375.680 276.420,375.680 276.145 C 375.680 275.977,374.864 275.840,373.867 275.840 C 372.869 275.840,372.113 275.892,372.187 275.955 M382.860 276.192 C 382.528 276.730,383.906 277.982,384.346 277.542 C 384.604 277.284,384.602 277.006,384.338 276.514 C 383.949 275.786,383.211 275.625,382.860 276.192 M17.920 276.800 C 17.920 276.976,17.632 277.120,17.280 277.120 C 16.928 277.120,16.640 277.264,16.640 277.440 C 16.640 277.616,16.421 277.760,16.154 277.760 C 15.563 277.760,11.520 281.741,11.520 282.323 C 11.520 282.552,11.232 282.946,10.880 283.200 C 10.528 283.454,10.240 283.886,10.240 284.160 C 10.240 284.434,9.952 284.866,9.600 285.120 C 9.248 285.374,8.960 285.837,8.960 286.151 C 8.960 286.464,8.816 286.720,8.640 286.720 C 8.464 286.720,8.320 286.976,8.320 287.289 C 8.320 287.603,8.032 288.066,7.680 288.320 C 7.328 288.574,7.040 289.037,7.040 289.351 C 7.040 289.664,6.896 289.920,6.720 289.920 C 6.544 289.920,6.400 290.208,6.400 290.560 C 6.400 290.912,6.256 291.200,6.080 291.200 C 5.904 291.200,5.760 291.488,5.760 291.840 C 5.760 292.192,5.616 292.480,5.440 292.480 C 5.264 292.480,5.120 292.768,5.120 293.120 C 5.120 293.472,4.976 293.760,4.800 293.760 C 4.624 293.760,4.480 294.048,4.480 294.400 C 4.480 294.752,4.336 295.040,4.160 295.040 C 3.984 295.040,3.840 295.328,3.840 295.680 C 3.840 296.032,3.696 296.320,3.520 296.320 C 3.344 296.320,3.200 296.608,3.200 296.960 C 3.200 297.312,3.056 297.600,2.880 297.600 C 2.704 297.600,2.560 298.032,2.560 298.560 C 2.560 299.088,2.416 299.520,2.240 299.520 C 2.064 299.520,1.920 299.952,1.920 300.480 C 1.920 301.008,1.776 301.440,1.600 301.440 C 1.424 301.440,1.287 301.836,1.296 302.320 C 1.311 303.120,1.358 303.084,1.813 301.920 C 6.727 289.343,13.438 279.326,18.276 277.347 C 20.287 276.525,20.301 276.511,19.120 276.496 C 18.460 276.487,17.920 276.624,17.920 276.800 M52.000 276.649 C 52.383 276.792,58.103 277.760,58.560 277.760 C 58.736 277.760,58.880 277.616,58.880 277.440 C 58.880 277.264,58.160 277.120,57.280 277.120 C 56.400 277.120,55.680 276.976,55.680 276.800 C 55.680 276.618,54.817 276.491,53.680 276.505 C 52.580 276.519,51.824 276.584,52.000 276.649 M341.120 276.800 C 341.120 277.164,342.730 277.164,344.160 276.800 C 344.924 276.606,344.712 276.548,343.120 276.518 C 341.975 276.496,341.120 276.617,341.120 276.800 M377.451 277.083 C 379.877 277.957,380.208 278.188,382.396 280.527 C 386.925 285.368,393.105 296.671,395.404 304.320 C 396.098 306.629,396.126 306.669,396.143 305.360 C 396.152 304.612,396.016 304.000,395.840 304.000 C 395.664 304.000,395.520 303.568,395.520 303.040 C 395.520 302.512,395.376 302.080,395.200 302.080 C 395.024 302.080,394.880 301.648,394.880 301.120 C 394.880 300.592,394.736 300.160,394.560 300.160 C 394.384 300.160,394.240 299.872,394.240 299.520 C 394.240 299.168,394.096 298.880,393.920 298.880 C 393.744 298.880,393.600 298.448,393.600 297.920 C 393.600 297.392,393.456 296.960,393.280 296.960 C 393.104 296.960,392.960 296.672,392.960 296.320 C 392.960 295.968,392.816 295.680,392.640 295.680 C 392.464 295.680,392.320 295.392,392.320 295.040 C 392.320 294.688,392.176 294.400,392.000 294.400 C 391.824 294.400,391.680 294.112,391.680 293.760 C 391.680 293.408,391.536 293.120,391.360 293.120 C 391.184 293.120,391.040 292.832,391.040 292.480 C 391.040 292.128,390.896 291.840,390.720 291.840 C 390.544 291.840,390.400 291.552,390.400 291.200 C 390.400 290.848,390.256 290.560,390.080 290.560 C 389.904 290.560,389.760 290.304,389.760 289.991 C 389.760 289.677,389.472 289.214,389.120 288.960 C 388.768 288.706,388.480 288.243,388.480 287.929 C 388.480 287.616,388.336 287.360,388.160 287.360 C 387.984 287.360,387.840 287.104,387.840 286.791 C 387.840 286.477,387.552 286.014,387.200 285.760 C 386.848 285.506,386.560 285.104,386.560 284.866 C 386.560 284.325,385.745 283.482,385.478 283.749 C 385.369 283.858,385.280 283.620,385.280 283.222 C 385.280 282.823,384.848 282.093,384.320 281.600 C 383.792 281.107,383.360 280.538,383.360 280.337 C 383.360 279.833,381.885 278.400,381.365 278.400 C 381.132 278.400,380.734 278.112,380.480 277.760 C 380.209 277.384,379.652 277.120,379.129 277.120 C 378.640 277.120,378.240 276.976,378.240 276.800 C 378.240 276.624,377.700 276.485,377.040 276.492 L 375.840 276.503 377.451 277.083 M337.280 277.440 C 337.280 277.616,336.704 277.760,336.000 277.760 C 335.296 277.760,334.720 277.904,334.720 278.080 C 334.720 278.474,334.589 278.486,338.080 277.777 L 340.960 277.192 339.120 277.156 C 338.083 277.136,337.280 277.260,337.280 277.440 M60.000 278.080 C 61.415 278.440,62.080 278.440,62.080 278.080 C 62.080 277.904,61.396 277.777,60.560 277.798 C 59.203 277.832,59.143 277.862,60.000 278.080 M63.200 278.720 C 64.615 279.080,65.280 279.080,65.280 278.720 C 65.280 278.544,64.596 278.417,63.760 278.438 C 62.403 278.472,62.343 278.502,63.200 278.720 M331.520 278.735 C 331.520 278.946,331.960 278.989,332.720 278.852 C 334.381 278.552,334.425 278.400,332.853 278.400 C 332.120 278.400,331.520 278.551,331.520 278.735 M66.240 279.360 C 67.384 279.726,67.840 279.726,67.840 279.360 C 67.840 279.184,67.300 279.054,66.640 279.072 C 65.569 279.100,65.526 279.131,66.240 279.360 M328.320 279.360 C 328.320 279.729,329.088 279.729,330.240 279.360 C 330.920 279.142,330.835 279.099,329.680 279.072 C 328.932 279.054,328.320 279.184,328.320 279.360 M68.960 280.000 C 69.844 280.380,70.400 280.380,70.400 280.000 C 70.400 279.824,69.932 279.690,69.360 279.702 C 68.488 279.721,68.424 279.770,68.960 280.000 M325.760 280.000 C 325.760 280.366,326.216 280.366,327.360 280.000 C 328.074 279.771,328.031 279.740,326.960 279.712 C 326.300 279.694,325.760 279.824,325.760 280.000 M71.067 280.438 C 71.444 280.770,73.600 280.955,73.600 280.655 C 73.600 280.471,73.000 280.320,72.267 280.320 C 71.533 280.320,70.993 280.373,71.067 280.438 M323.200 280.646 C 323.200 280.840,323.558 280.886,324.080 280.761 C 325.336 280.460,325.379 280.320,324.213 280.320 C 323.656 280.320,323.200 280.467,323.200 280.646 M5.401 281.719 C 5.027 282.538,5.194 283.520,5.706 283.520 C 6.174 283.520,7.708 281.844,7.584 281.467 C 7.335 280.707,5.780 280.886,5.401 281.719 M74.560 281.280 C 75.704 281.646,76.160 281.646,76.160 281.280 C 76.160 281.104,75.620 280.974,74.960 280.992 C 73.889 281.020,73.846 281.051,74.560 281.280 M96.140 281.312 C 95.808 281.850,97.186 283.102,97.626 282.662 C 97.884 282.404,97.882 282.126,97.618 281.634 C 97.229 280.906,96.491 280.745,96.140 281.312 M302.361 281.719 C 301.987 282.538,302.154 283.520,302.666 283.520 C 303.134 283.520,304.668 281.844,304.544 281.467 C 304.295 280.707,302.740 280.886,302.361 281.719 M320.640 281.280 C 320.640 281.656,320.886 281.656,321.760 281.280 C 322.327 281.036,322.300 281.002,321.520 280.982 C 321.036 280.970,320.640 281.104,320.640 281.280 M387.980 281.312 C 387.648 281.850,389.026 283.102,389.466 282.662 C 389.724 282.404,389.722 282.126,389.458 281.634 C 389.069 280.906,388.331 280.745,387.980 281.312 M77.120 281.920 C 78.264 282.286,78.720 282.286,78.720 281.920 C 78.720 281.744,78.180 281.614,77.520 281.632 C 76.449 281.660,76.406 281.691,77.120 281.920 M317.440 281.935 C 317.440 282.146,317.880 282.189,318.640 282.052 C 320.301 281.752,320.345 281.600,318.773 281.600 C 318.040 281.600,317.440 281.751,317.440 281.935 M79.387 282.355 C 79.769 282.685,81.280 282.853,81.280 282.566 C 81.280 282.387,80.824 282.240,80.267 282.240 C 79.709 282.240,79.313 282.292,79.387 282.355 M314.880 282.560 C 314.880 282.926,315.336 282.926,316.480 282.560 C 317.194 282.331,317.151 282.300,316.080 282.272 C 315.420 282.254,314.880 282.384,314.880 282.560 M81.947 282.995 C 82.329 283.325,83.840 283.493,83.840 283.206 C 83.840 283.027,83.384 282.880,82.827 282.880 C 82.269 282.880,81.873 282.932,81.947 282.995 M312.320 283.200 C 312.320 283.566,312.776 283.566,313.920 283.200 C 314.634 282.971,314.591 282.940,313.520 282.912 C 312.860 282.894,312.320 283.024,312.320 283.200 M84.507 283.635 C 84.889 283.965,86.400 284.133,86.400 283.846 C 86.400 283.667,85.944 283.520,85.387 283.520 C 84.829 283.520,84.433 283.572,84.507 283.635 M309.760 283.840 C 309.760 284.206,310.216 284.206,311.360 283.840 C 312.074 283.611,312.031 283.580,310.960 283.552 C 310.300 283.534,309.760 283.664,309.760 283.840 M88.320 284.614 C 91.156 285.397,91.520 285.455,91.520 285.126 C 91.520 284.947,91.088 284.800,90.560 284.800 C 90.032 284.800,89.600 284.656,89.600 284.480 C 89.600 284.304,88.988 284.173,88.240 284.189 L 86.880 284.217 88.320 284.614 M307.200 284.480 C 307.200 284.846,307.656 284.846,308.800 284.480 C 309.514 284.251,309.471 284.220,308.400 284.192 C 307.740 284.174,307.200 284.304,307.200 284.480 M304.640 285.120 C 304.640 285.500,305.196 285.500,306.080 285.120 C 306.616 284.890,306.552 284.841,305.680 284.822 C 305.108 284.810,304.640 284.944,304.640 285.120 M93.120 285.760 C 94.264 286.126,94.720 286.126,94.720 285.760 C 94.720 285.584,94.180 285.454,93.520 285.472 C 92.449 285.500,92.406 285.531,93.120 285.760 M302.080 285.766 C 302.080 285.960,302.438 286.006,302.960 285.881 C 304.216 285.580,304.259 285.440,303.093 285.440 C 302.536 285.440,302.080 285.587,302.080 285.766 M95.680 286.400 C 96.824 286.766,97.280 286.766,97.280 286.400 C 97.280 286.224,96.740 286.094,96.080 286.112 C 95.009 286.140,94.966 286.171,95.680 286.400 M298.880 286.400 C 298.880 286.576,298.304 286.720,297.600 286.720 C 296.896 286.720,296.320 286.871,296.320 287.055 C 296.320 287.415,297.574 287.247,300.116 286.546 L 301.600 286.137 300.240 286.109 C 299.492 286.093,298.880 286.224,298.880 286.400 M97.627 286.834 C 97.987 287.142,99.840 287.308,99.840 287.032 C 99.840 286.860,99.312 286.720,98.667 286.720 C 98.021 286.720,97.553 286.771,97.627 286.834 M101.120 287.680 C 102.272 288.049,103.040 288.049,103.040 287.680 C 103.040 287.504,102.428 287.374,101.680 287.392 C 100.525 287.419,100.440 287.462,101.120 287.680 M293.760 287.672 C 293.760 287.851,294.202 287.900,294.800 287.786 C 296.258 287.508,296.305 287.360,294.933 287.360 C 294.288 287.360,293.760 287.500,293.760 287.672 M103.387 288.114 C 103.747 288.422,105.600 288.588,105.600 288.312 C 105.600 288.140,105.072 288.000,104.427 288.000 C 103.781 288.000,103.313 288.051,103.387 288.114 M290.560 288.335 C 290.560 288.546,291.000 288.589,291.760 288.452 C 293.421 288.152,293.465 288.000,291.893 288.000 C 291.160 288.000,290.560 288.151,290.560 288.335 M108.727 289.050 C 110.126 289.274,110.951 289.267,111.447 289.027 C 112.012 288.755,111.597 288.688,109.440 288.706 L 106.720 288.729 108.727 289.050 M0.281 291.959 C -0.093 292.778,0.074 293.760,0.586 293.760 C 1.054 293.760,2.588 292.084,2.464 291.707 C 2.215 290.947,0.660 291.126,0.281 291.959 M393.100 291.552 C 392.768 292.090,394.146 293.342,394.586 292.902 C 394.844 292.644,394.842 292.366,394.578 291.874 C 394.189 291.146,393.451 290.985,393.100 291.552 M398.220 301.792 C 397.888 302.330,399.266 303.582,399.706 303.142 C 399.964 302.884,399.962 302.606,399.698 302.114 C 399.309 301.386,398.571 301.225,398.220 301.792 M0.662 304.400 C 0.681 305.272,0.730 305.336,0.960 304.800 C 1.340 303.916,1.340 303.360,0.960 303.360 C 0.784 303.360,0.650 303.828,0.662 304.400 M0.000 308.800 C 0.000 310.507,0.130 311.680,0.320 311.680 C 0.496 311.680,0.640 311.968,0.640 312.320 C 0.640 312.672,0.784 312.960,0.960 312.960 C 1.136 312.960,1.280 313.178,1.280 313.445 C 1.280 313.993,5.882 318.720,6.416 318.720 C 6.606 318.720,7.463 319.440,8.320 320.320 C 9.177 321.200,10.072 321.920,10.309 321.920 C 10.546 321.920,11.409 322.640,12.227 323.520 C 13.045 324.400,13.911 325.120,14.150 325.120 C 14.390 325.120,15.116 325.696,15.763 326.400 C 16.411 327.104,17.144 327.680,17.394 327.680 C 17.644 327.680,18.188 328.111,18.604 328.637 C 19.020 329.163,19.596 329.595,19.884 329.597 C 20.172 329.599,20.748 330.031,21.164 330.557 C 21.580 331.083,22.114 331.515,22.352 331.517 C 22.589 331.519,23.187 331.952,23.680 332.480 C 24.173 333.008,24.791 333.440,25.052 333.440 C 25.314 333.440,25.868 333.871,26.284 334.397 C 26.700 334.923,27.276 335.355,27.564 335.357 C 27.852 335.359,28.428 335.791,28.844 336.317 C 29.260 336.843,29.851 337.275,30.157 337.277 C 30.464 337.279,30.894 337.568,31.114 337.920 C 31.334 338.272,31.710 338.560,31.949 338.560 C 32.188 338.560,32.787 338.992,33.280 339.520 C 33.773 340.048,34.349 340.480,34.560 340.480 C 34.771 340.480,35.347 340.912,35.840 341.440 C 36.333 341.968,36.935 342.400,37.178 342.400 C 37.420 342.400,37.826 342.688,38.080 343.040 C 38.334 343.392,38.737 343.680,38.976 343.680 C 39.215 343.680,39.964 344.256,40.640 344.960 C 41.316 345.664,42.065 346.240,42.304 346.240 C 42.543 346.240,42.946 346.528,43.200 346.880 C 43.454 347.232,43.860 347.520,44.102 347.520 C 44.345 347.520,44.947 347.952,45.440 348.480 C 45.933 349.008,46.504 349.440,46.709 349.440 C 46.914 349.440,47.783 350.160,48.640 351.040 C 49.497 351.920,50.392 352.640,50.629 352.640 C 50.865 352.640,51.266 352.928,51.520 353.280 C 51.774 353.632,52.236 353.920,52.548 353.920 C 52.860 353.920,53.294 354.208,53.514 354.560 C 53.734 354.912,54.167 355.200,54.477 355.200 C 54.787 355.200,55.040 355.344,55.040 355.520 C 55.040 355.696,55.328 355.840,55.680 355.840 C 56.032 355.840,56.320 355.984,56.320 356.160 C 56.320 356.336,56.608 356.480,56.960 356.480 C 57.312 356.480,57.600 356.624,57.600 356.800 C 57.600 356.976,57.888 357.120,58.240 357.120 C 58.592 357.120,58.880 357.264,58.880 357.440 C 58.880 357.616,59.168 357.760,59.520 357.760 C 59.872 357.760,60.160 357.904,60.160 358.080 C 60.160 358.256,60.556 358.397,61.040 358.393 C 61.697 358.387,61.069 357.954,58.560 356.681 C 53.292 354.010,52.632 353.594,49.600 351.035 C 48.169 349.828,45.745 347.967,43.680 346.491 C 43.504 346.365,42.856 345.852,42.240 345.351 C 41.624 344.850,39.968 343.623,38.560 342.623 C 37.152 341.623,35.825 340.659,35.612 340.481 C 35.398 340.302,34.750 339.833,34.172 339.438 C 23.347 332.046,6.070 317.967,2.178 313.368 C 0.353 311.212,0.202 310.761,0.378 307.992 C 0.451 306.852,0.396 305.920,0.255 305.920 C 0.115 305.920,0.000 307.216,0.000 308.800 M395.405 312.006 C 393.833 314.679,386.099 321.712,376.187 329.481 C 370.214 334.163,350.184 348.810,346.341 351.307 C 344.035 352.805,343.586 353.280,344.480 353.280 C 344.744 353.280,344.960 353.136,344.960 352.960 C 344.960 352.784,345.213 352.640,345.523 352.640 C 345.833 352.640,346.266 352.352,346.486 352.000 C 346.706 351.648,347.114 351.360,347.394 351.360 C 347.674 351.360,348.307 350.928,348.800 350.400 C 349.293 349.872,349.895 349.440,350.138 349.440 C 350.380 349.440,350.786 349.152,351.040 348.800 C 351.294 348.448,351.700 348.160,351.942 348.160 C 352.185 348.160,352.787 347.728,353.280 347.200 C 353.773 346.672,354.375 346.240,354.618 346.240 C 354.860 346.240,355.266 345.952,355.520 345.600 C 355.774 345.248,356.180 344.960,356.422 344.960 C 356.665 344.960,357.267 344.528,357.760 344.000 C 358.253 343.472,358.829 343.040,359.040 343.040 C 359.251 343.040,359.827 342.608,360.320 342.080 C 360.813 341.552,361.415 341.120,361.658 341.120 C 361.900 341.120,362.306 340.832,362.560 340.480 C 362.814 340.128,363.220 339.840,363.462 339.840 C 363.705 339.840,364.307 339.408,364.800 338.880 C 365.293 338.352,365.869 337.920,366.080 337.920 C 366.291 337.920,366.867 337.488,367.360 336.960 C 367.853 336.432,368.451 335.999,368.688 335.997 C 368.926 335.995,369.460 335.563,369.876 335.037 C 370.292 334.511,370.846 334.080,371.108 334.080 C 371.369 334.080,371.987 333.648,372.480 333.120 C 372.973 332.592,373.549 332.160,373.760 332.160 C 373.971 332.160,374.547 331.728,375.040 331.200 C 375.533 330.672,376.106 330.240,376.313 330.240 C 376.521 330.240,377.244 329.664,377.920 328.960 C 378.596 328.256,379.316 327.680,379.520 327.680 C 379.724 327.680,380.444 327.104,381.120 326.400 C 381.796 325.696,382.514 325.120,382.716 325.120 C 382.917 325.120,383.783 324.400,384.640 323.520 C 385.497 322.640,386.353 321.920,386.542 321.920 C 387.061 321.920,395.520 313.355,395.520 312.830 C 395.520 312.579,395.680 312.320,395.877 312.254 C 396.073 312.189,396.181 311.879,396.117 311.565 C 396.024 311.110,395.879 311.200,395.405 312.006 M0.164 320.953 C -0.111 321.398,0.575 322.560,1.112 322.560 C 1.863 322.560,2.016 321.916,1.422 321.260 C 0.798 320.570,0.453 320.486,0.164 320.953 M10.404 326.073 C 10.129 326.518,10.815 327.680,11.352 327.680 C 12.103 327.680,12.256 327.036,11.662 326.380 C 11.038 325.690,10.693 325.606,10.404 326.073 M15.524 331.193 C 15.249 331.638,15.935 332.800,16.472 332.800 C 17.223 332.800,17.376 332.156,16.782 331.500 C 16.158 330.810,15.813 330.726,15.524 331.193 M20.644 336.313 C 20.369 336.758,21.055 337.920,21.592 337.920 C 22.343 337.920,22.496 337.276,21.902 336.620 C 21.278 335.930,20.933 335.846,20.644 336.313 M30.884 341.433 C 30.609 341.878,31.295 343.040,31.832 343.040 C 32.583 343.040,32.736 342.396,32.142 341.740 C 31.518 341.050,31.173 340.966,30.884 341.433 M36.004 346.553 C 35.729 346.998,36.415 348.160,36.952 348.160 C 37.703 348.160,37.856 347.516,37.262 346.860 C 36.638 346.170,36.293 346.086,36.004 346.553 M41.124 351.673 C 40.849 352.118,41.535 353.280,42.072 353.280 C 42.823 353.280,42.976 352.636,42.382 351.980 C 41.758 351.290,41.413 351.206,41.124 351.673 M341.280 354.405 C 340.224 355.013,337.922 356.124,336.165 356.875 C 333.762 357.902,333.165 358.268,333.755 358.351 C 334.186 358.413,334.592 358.305,334.656 358.111 C 334.721 357.918,335.049 357.760,335.387 357.760 C 335.724 357.760,336.000 357.616,336.000 357.440 C 336.000 357.264,336.432 357.120,336.960 357.120 C 337.488 357.120,337.920 356.976,337.920 356.800 C 337.920 356.624,338.208 356.480,338.560 356.480 C 338.912 356.480,339.200 356.336,339.200 356.160 C 339.200 355.984,339.488 355.840,339.840 355.840 C 340.192 355.840,340.480 355.696,340.480 355.520 C 340.480 355.344,340.768 355.200,341.120 355.200 C 341.472 355.200,341.760 355.056,341.760 354.880 C 341.760 354.704,341.986 354.560,342.263 354.560 C 342.748 354.560,343.680 353.838,343.680 353.463 C 343.680 353.113,343.189 353.306,341.280 354.405 M51.364 356.793 C 51.089 357.238,51.775 358.400,52.312 358.400 C 53.063 358.400,53.216 357.756,52.622 357.100 C 51.998 356.410,51.653 356.326,51.364 356.793 M62.080 358.686 C 62.080 358.881,62.368 359.040,62.720 359.040 C 63.072 359.040,63.360 359.184,63.360 359.360 C 63.360 359.536,63.792 359.680,64.320 359.680 C 64.848 359.680,65.280 359.824,65.280 360.000 C 65.280 360.176,65.712 360.320,66.240 360.320 C 66.768 360.320,67.200 360.464,67.200 360.640 C 67.200 360.816,67.740 360.958,68.400 360.955 C 69.401 360.950,69.069 360.769,66.400 359.862 C 64.640 359.265,62.948 358.676,62.640 358.554 C 62.310 358.423,62.080 358.477,62.080 358.686 M331.040 359.022 C 329.831 359.595,329.809 359.630,330.640 359.654 C 331.124 359.668,331.520 359.536,331.520 359.360 C 331.520 359.184,331.808 359.040,332.160 359.040 C 332.512 359.040,332.800 358.896,332.800 358.720 C 332.800 358.276,332.513 358.325,331.040 359.022 M326.880 360.585 C 325.142 361.248,324.817 361.465,325.430 361.551 C 325.864 361.613,326.272 361.505,326.336 361.311 C 326.401 361.118,326.873 360.960,327.387 360.960 C 327.900 360.960,328.320 360.816,328.320 360.640 C 328.320 360.464,328.608 360.320,328.960 360.320 C 329.312 360.320,329.600 360.176,329.600 360.000 C 329.600 359.569,329.463 359.599,326.880 360.585 M69.760 361.280 C 69.760 361.456,70.156 361.590,70.640 361.578 C 71.420 361.558,71.447 361.524,70.880 361.280 C 70.006 360.904,69.760 360.904,69.760 361.280 M56.484 361.913 C 56.209 362.358,56.895 363.520,57.432 363.520 C 58.183 363.520,58.336 362.876,57.742 362.220 C 57.118 361.530,56.773 361.446,56.484 361.913 M71.680 361.920 C 71.680 362.096,72.076 362.230,72.560 362.218 C 73.340 362.198,73.367 362.164,72.800 361.920 C 71.926 361.544,71.680 361.544,71.680 361.920 M322.880 361.920 C 322.166 362.149,322.209 362.180,323.280 362.208 C 323.940 362.226,324.480 362.096,324.480 361.920 C 324.480 361.554,324.024 361.554,322.880 361.920 M73.600 362.560 C 73.600 362.736,73.996 362.870,74.480 362.858 C 75.260 362.838,75.287 362.804,74.720 362.560 C 73.846 362.184,73.600 362.184,73.600 362.560 M320.640 362.560 C 319.882 362.803,319.895 362.818,320.880 362.848 C 321.452 362.866,321.920 362.736,321.920 362.560 C 321.920 362.198,321.769 362.198,320.640 362.560 M75.520 363.200 C 75.520 363.376,75.916 363.510,76.400 363.498 C 77.180 363.478,77.207 363.444,76.640 363.200 C 75.766 362.824,75.520 362.824,75.520 363.200 M318.240 363.200 C 317.673 363.444,317.700 363.478,318.480 363.498 C 318.964 363.510,319.360 363.376,319.360 363.200 C 319.360 362.824,319.114 362.824,318.240 363.200 M77.440 363.834 C 77.440 364.013,77.896 364.160,78.453 364.160 C 79.619 364.160,79.576 364.020,78.320 363.719 C 77.798 363.594,77.440 363.640,77.440 363.834 M316.160 363.840 C 315.402 364.083,315.415 364.098,316.400 364.128 C 316.972 364.146,317.440 364.016,317.440 363.840 C 317.440 363.478,317.289 363.478,316.160 363.840 M80.000 364.524 C 80.000 364.676,80.360 364.800,80.800 364.800 C 81.240 364.800,81.600 364.745,81.600 364.677 C 81.600 364.610,81.240 364.486,80.800 364.402 C 80.360 364.318,80.000 364.373,80.000 364.524 M313.760 364.480 C 313.193 364.724,313.220 364.758,314.000 364.778 C 314.484 364.790,314.880 364.656,314.880 364.480 C 314.880 364.104,314.634 364.104,313.760 364.480 M83.840 365.754 C 83.840 365.933,84.272 366.080,84.800 366.080 C 85.328 366.080,85.760 366.224,85.760 366.400 C 85.760 366.576,86.192 366.720,86.720 366.720 C 87.248 366.720,87.680 366.864,87.680 367.040 C 87.680 367.216,88.112 367.360,88.640 367.360 C 89.168 367.360,89.600 367.504,89.600 367.680 C 89.600 367.856,90.068 367.989,90.640 367.976 C 91.439 367.957,90.977 367.710,88.640 366.908 C 84.705 365.557,83.840 365.349,83.840 365.754 M308.960 365.813 C 308.432 365.988,307.568 366.249,307.040 366.393 L 306.080 366.654 307.280 366.687 C 307.940 366.705,308.480 366.576,308.480 366.400 C 308.480 366.224,308.912 366.080,309.440 366.080 C 309.968 366.080,310.400 365.936,310.400 365.760 C 310.400 365.384,310.238 365.390,308.960 365.813 M71.844 367.033 C 71.569 367.478,72.255 368.640,72.792 368.640 C 73.543 368.640,73.696 367.996,73.102 367.340 C 72.478 366.650,72.133 366.566,71.844 367.033 M304.480 367.040 C 303.944 367.270,304.008 367.319,304.880 367.338 C 305.452 367.350,305.920 367.216,305.920 367.040 C 305.920 366.660,305.364 366.660,304.480 367.040 M302.400 367.680 L 301.600 367.936 302.480 367.968 C 302.964 367.986,303.360 367.856,303.360 367.680 C 303.360 367.504,303.324 367.374,303.280 367.392 C 303.236 367.409,302.840 367.539,302.400 367.680 M92.160 368.320 C 92.160 368.496,92.484 368.638,92.880 368.635 C 93.462 368.631,93.508 368.571,93.120 368.320 C 92.500 367.919,92.160 367.919,92.160 368.320 M300.320 368.320 C 299.753 368.564,299.780 368.598,300.560 368.618 C 301.044 368.630,301.440 368.496,301.440 368.320 C 301.440 367.944,301.194 367.944,300.320 368.320 M297.920 368.960 C 297.206 369.189,297.249 369.220,298.320 369.248 C 298.980 369.266,299.520 369.136,299.520 368.960 C 299.520 368.594,299.064 368.594,297.920 368.960 M96.000 369.600 C 96.000 369.776,96.396 369.910,96.880 369.898 C 97.660 369.878,97.687 369.844,97.120 369.600 C 96.246 369.224,96.000 369.224,96.000 369.600 M295.840 369.600 C 295.273 369.844,295.300 369.878,296.080 369.898 C 296.564 369.910,296.960 369.776,296.960 369.600 C 296.960 369.224,296.714 369.224,295.840 369.600 M97.920 370.240 C 97.920 370.416,98.316 370.550,98.800 370.538 C 99.580 370.518,99.607 370.484,99.040 370.240 C 98.166 369.864,97.920 369.864,97.920 370.240 M293.600 370.240 C 293.064 370.470,293.128 370.519,294.000 370.538 C 294.572 370.550,295.040 370.416,295.040 370.240 C 295.040 369.860,294.484 369.860,293.600 370.240 M99.840 370.880 C 99.840 371.056,100.272 371.200,100.800 371.200 C 101.328 371.200,101.760 371.344,101.760 371.520 C 101.760 371.696,102.192 371.840,102.720 371.840 C 103.248 371.840,103.680 371.984,103.680 372.160 C 103.680 372.336,104.112 372.480,104.640 372.480 C 105.168 372.480,105.600 372.624,105.600 372.800 C 105.600 372.976,106.068 373.109,106.640 373.096 C 107.405 373.078,106.710 372.739,104.011 371.816 C 100.010 370.447,99.840 370.408,99.840 370.880 M291.520 370.880 L 290.720 371.136 291.600 371.168 C 292.084 371.186,292.480 371.056,292.480 370.880 C 292.480 370.704,292.444 370.574,292.400 370.592 C 292.356 370.609,291.960 370.739,291.520 370.880 M288.000 371.853 C 286.246 372.439,286.244 372.441,287.440 372.460 C 288.100 372.471,288.640 372.336,288.640 372.160 C 288.640 371.984,289.072 371.840,289.600 371.840 C 290.128 371.840,290.560 371.696,290.560 371.520 C 290.560 371.094,290.094 371.154,288.000 371.853 M92.324 372.153 C 92.049 372.598,92.735 373.760,93.272 373.760 C 94.023 373.760,94.176 373.116,93.582 372.460 C 92.958 371.770,92.613 371.686,92.324 372.153 M284.960 372.800 C 284.393 373.044,284.420 373.078,285.200 373.098 C 285.684 373.110,286.080 372.976,286.080 372.800 C 286.080 372.424,285.834 372.424,284.960 372.800 M281.888 373.578 C 281.812 373.655,279.252 374.439,276.199 375.321 C 269.888 377.145,269.323 377.430,272.480 377.198 C 274.963 377.015,277.421 376.270,278.729 375.302 C 279.771 374.532,282.003 374.272,283.454 374.751 C 284.810 375.199,285.116 374.909,284.162 374.082 C 283.494 373.502,282.242 373.225,281.888 373.578 M112.000 374.764 C 112.000 374.916,112.360 375.040,112.800 375.040 C 113.240 375.040,113.600 374.985,113.600 374.917 C 113.600 374.850,113.240 374.726,112.800 374.642 C 112.360 374.558,112.000 374.613,112.000 374.764 M113.920 375.360 C 113.920 375.536,114.316 375.670,114.800 375.658 C 115.580 375.638,115.607 375.604,115.040 375.360 C 114.166 374.984,113.920 374.984,113.920 375.360 M115.840 376.000 C 115.840 376.176,116.236 376.310,116.720 376.298 C 117.500 376.278,117.527 376.244,116.960 376.000 C 116.086 375.624,115.840 375.624,115.840 376.000 M117.760 376.640 C 117.760 376.816,118.156 376.958,118.640 376.955 C 119.326 376.951,119.414 376.882,119.040 376.640 C 118.414 376.235,117.760 376.235,117.760 376.640 M107.684 377.273 C 107.409 377.718,108.095 378.880,108.632 378.880 C 109.383 378.880,109.536 378.236,108.942 377.580 C 108.318 376.890,107.973 376.806,107.684 377.273 M119.680 377.274 C 119.680 377.453,120.136 377.600,120.693 377.600 C 121.859 377.600,121.816 377.460,120.560 377.159 C 120.038 377.034,119.680 377.080,119.680 377.274 M154.880 377.972 C 151.123 379.261,147.604 380.160,146.323 380.160 C 143.289 380.160,141.085 391.355,142.953 397.280 C 144.474 402.105,149.481 408.320,151.845 408.320 C 152.458 408.320,152.960 408.176,152.960 408.000 C 152.960 407.824,153.536 407.680,154.240 407.680 C 154.944 407.680,155.520 407.536,155.520 407.360 C 155.520 407.184,155.952 407.040,156.480 407.040 C 157.008 407.040,157.440 406.896,157.440 406.720 C 157.440 406.544,157.872 406.400,158.400 406.400 C 158.928 406.400,159.360 406.256,159.360 406.080 C 159.360 405.904,159.792 405.760,160.320 405.760 C 160.848 405.760,161.280 405.616,161.280 405.440 C 161.280 405.264,161.712 405.120,162.240 405.120 C 162.768 405.120,163.200 404.976,163.200 404.800 C 163.200 404.624,163.489 404.480,163.843 404.480 C 164.360 404.480,164.425 404.371,164.173 403.920 C 163.781 403.217,160.280 387.299,159.194 381.280 C 158.908 379.696,158.610 378.076,158.531 377.680 C 158.356 376.802,158.273 376.809,154.880 377.972 M268.640 377.600 L 268.000 377.875 268.640 377.893 C 268.992 377.902,269.496 377.771,269.760 377.600 C 270.396 377.189,269.597 377.189,268.640 377.600 M122.240 377.964 C 122.240 378.116,122.600 378.240,123.040 378.240 C 123.480 378.240,123.840 378.185,123.840 378.117 C 123.840 378.050,123.480 377.926,123.040 377.842 C 122.600 377.758,122.240 377.813,122.240 377.964 M124.160 378.560 C 124.160 378.736,124.484 378.878,124.880 378.875 C 125.462 378.871,125.508 378.811,125.120 378.560 C 124.500 378.159,124.160 378.159,124.160 378.560 M263.600 378.959 C 262.412 379.318,261.440 379.745,261.440 379.908 C 261.440 380.070,261.735 380.110,262.095 379.995 C 262.456 379.881,262.960 379.961,263.215 380.173 C 263.543 380.445,263.680 380.453,263.680 380.199 C 263.680 380.002,263.968 379.840,264.320 379.840 C 264.679 379.840,264.960 380.053,264.960 380.326 C 264.960 380.679,265.170 380.760,265.725 380.620 C 266.146 380.515,266.587 380.584,266.704 380.775 C 266.836 380.987,267.406 381.043,268.179 380.920 C 269.023 380.785,269.440 380.838,269.440 381.080 C 269.440 381.315,270.088 381.420,271.280 381.380 C 272.292 381.345,273.840 381.438,274.720 381.587 L 276.320 381.856 275.684 381.139 C 275.108 380.490,274.790 380.428,272.324 380.491 C 266.385 380.642,265.536 380.401,266.512 378.838 C 266.997 378.062,266.498 378.082,263.600 378.959 M295.820 378.592 C 295.488 379.130,296.866 380.382,297.306 379.942 C 297.564 379.684,297.562 379.406,297.298 378.914 C 296.909 378.186,296.171 378.025,295.820 378.592 M126.080 379.200 C 126.080 379.376,126.476 379.510,126.960 379.498 C 127.740 379.478,127.767 379.444,127.200 379.200 C 126.326 378.824,126.080 378.824,126.080 379.200 M128.000 379.805 C 128.000 380.000,128.369 380.160,128.821 380.160 C 129.273 380.160,129.933 380.316,130.288 380.506 C 130.644 380.696,131.014 380.772,131.112 380.675 C 131.294 380.492,130.167 379.994,128.786 379.648 C 128.305 379.527,128.000 379.588,128.000 379.805 M280.480 381.630 L 279.520 382.051 280.541 382.066 C 281.103 382.074,281.645 381.946,281.746 381.782 C 282.066 381.265,281.475 381.194,280.480 381.630 M284.000 381.910 C 285.078 382.428,286.720 382.551,286.720 382.114 C 286.720 381.956,286.396 381.840,286.000 381.855 C 285.604 381.870,284.776 381.785,284.160 381.665 L 283.040 381.448 284.000 381.910 M289.251 382.105 C 288.974 382.280,288.944 382.392,289.174 382.395 C 289.379 382.398,289.775 382.487,290.054 382.594 C 290.332 382.701,290.560 382.644,290.560 382.468 C 290.560 381.996,289.769 381.776,289.251 382.105 M321.420 383.712 C 321.088 384.250,322.466 385.502,322.906 385.062 C 323.164 384.804,323.162 384.526,322.898 384.034 C 322.509 383.306,321.771 383.145,321.420 383.712 M246.686 384.141 C 246.608 384.218,244.377 384.916,241.727 385.692 C 236.428 387.243,237.023 386.906,228.000 393.447 C 225.184 395.489,222.086 397.708,221.116 398.380 C 220.146 399.051,218.130 400.489,216.636 401.574 C 215.142 402.659,213.229 404.009,212.385 404.574 C 211.117 405.421,210.966 405.618,211.515 405.704 C 211.934 405.769,212.518 405.445,213.098 404.824 C 213.603 404.283,214.215 403.840,214.458 403.840 C 214.700 403.840,215.106 403.552,215.360 403.200 C 215.614 402.848,216.020 402.560,216.262 402.560 C 216.505 402.560,217.107 402.128,217.600 401.600 C 218.093 401.072,218.695 400.640,218.938 400.640 C 219.180 400.640,219.586 400.352,219.840 400.000 C 220.328 399.322,222.720 399.057,222.720 399.680 C 222.720 399.856,222.976 400.000,223.289 400.000 C 223.603 400.000,224.066 400.288,224.320 400.640 C 224.574 400.992,225.037 401.280,225.351 401.280 C 225.664 401.280,225.920 401.424,225.920 401.600 C 225.920 401.776,226.208 401.920,226.560 401.920 C 226.912 401.920,227.200 402.064,227.200 402.240 C 227.200 402.416,227.488 402.560,227.840 402.560 C 228.192 402.560,228.480 402.704,228.480 402.880 C 228.480 403.056,228.768 403.200,229.120 403.200 C 229.472 403.200,229.760 403.344,229.760 403.520 C 229.760 403.696,230.192 403.840,230.720 403.840 C 231.248 403.840,231.680 403.984,231.680 404.160 C 231.680 404.336,231.968 404.480,232.320 404.480 C 232.672 404.480,232.960 404.624,232.960 404.800 C 232.960 404.976,233.392 405.120,233.920 405.120 C 234.448 405.120,234.880 405.264,234.880 405.440 C 234.880 405.616,235.376 405.760,235.981 405.760 C 236.587 405.760,237.159 405.885,237.253 406.037 C 237.347 406.189,237.896 406.393,238.472 406.490 C 239.049 406.586,239.772 406.765,240.080 406.887 C 240.499 407.053,240.640 406.949,240.640 406.478 C 240.640 406.132,241.086 405.288,241.631 404.604 C 245.663 399.542,248.120 391.792,247.507 386.069 C 247.307 384.203,247.103 383.724,246.686 384.141 M321.421 387.690 C 322.233 388.304,322.743 388.297,322.126 387.680 C 321.862 387.416,321.455 387.205,321.223 387.210 C 320.958 387.217,321.031 387.395,321.421 387.690 M326.540 388.832 C 326.208 389.370,327.586 390.622,328.026 390.182 C 328.284 389.924,328.282 389.646,328.018 389.154 C 327.629 388.426,326.891 388.265,326.540 388.832 M327.489 392.400 C 328.562 393.500,329.486 394.299,329.542 394.175 C 329.665 393.902,326.209 390.400,325.816 390.400 C 325.664 390.400,326.416 391.300,327.489 392.400 M331.660 393.952 C 331.328 394.490,332.706 395.742,333.146 395.302 C 333.404 395.044,333.402 394.766,333.138 394.274 C 332.749 393.546,332.011 393.385,331.660 393.952 M330.785 396.290 C 331.101 396.714,331.408 396.931,331.466 396.773 C 331.524 396.615,331.354 396.268,331.089 396.003 C 330.338 395.252,330.146 395.434,330.785 396.290 M191.840 400.320 C 191.329 400.540,191.446 400.600,192.419 400.618 C 193.155 400.631,193.559 400.513,193.440 400.320 C 193.206 399.942,192.720 399.942,191.840 400.320 M193.920 400.960 C 193.920 401.136,194.316 401.270,194.800 401.258 C 195.580 401.238,195.607 401.204,195.040 400.960 C 194.166 400.584,193.920 400.584,193.920 400.960 M187.680 401.600 C 187.113 401.844,187.140 401.878,187.920 401.898 C 188.404 401.910,188.800 401.776,188.800 401.600 C 188.800 401.224,188.554 401.224,187.680 401.600 M195.840 401.600 C 195.840 401.776,196.308 401.910,196.880 401.898 C 197.752 401.879,197.816 401.830,197.280 401.600 C 196.396 401.220,195.840 401.220,195.840 401.600 M185.600 402.240 C 184.842 402.483,184.855 402.498,185.840 402.528 C 186.412 402.546,186.880 402.416,186.880 402.240 C 186.880 401.878,186.729 401.878,185.600 402.240 M183.360 402.880 C 182.972 403.131,183.018 403.191,183.600 403.195 C 183.996 403.198,184.320 403.056,184.320 402.880 C 184.320 402.479,183.980 402.479,183.360 402.880 M220.171 403.179 C 219.715 404.031,219.730 404.063,220.686 404.303 C 221.869 404.600,222.349 404.028,221.607 403.208 C 220.876 402.400,220.591 402.394,220.171 403.179 M181.280 403.520 C 180.713 403.764,180.740 403.798,181.520 403.818 C 182.004 403.830,182.400 403.696,182.400 403.520 C 182.400 403.144,182.154 403.144,181.280 403.520 M202.240 403.564 C 202.240 403.716,202.600 403.840,203.040 403.840 C 203.480 403.840,203.840 403.785,203.840 403.717 C 203.840 403.650,203.480 403.526,203.040 403.442 C 202.600 403.358,202.240 403.413,202.240 403.564 M178.880 404.160 L 178.080 404.416 178.960 404.448 C 179.444 404.466,179.840 404.336,179.840 404.160 C 179.840 403.984,179.804 403.854,179.760 403.872 C 179.716 403.889,179.320 404.019,178.880 404.160 M204.160 404.160 C 204.160 404.336,204.628 404.470,205.200 404.458 C 206.072 404.439,206.136 404.390,205.600 404.160 C 204.716 403.780,204.160 403.780,204.160 404.160 M176.640 404.800 C 176.266 405.042,176.354 405.111,177.040 405.115 C 177.524 405.118,177.920 404.976,177.920 404.800 C 177.920 404.395,177.266 404.395,176.640 404.800 M164.502 406.000 C 164.490 406.572,164.624 407.040,164.800 407.040 C 165.180 407.040,165.180 406.484,164.800 405.600 C 164.570 405.064,164.521 405.128,164.502 406.000 M174.400 405.440 C 173.686 405.669,173.729 405.700,174.800 405.728 C 175.460 405.746,176.000 405.616,176.000 405.440 C 176.000 405.074,175.544 405.074,174.400 405.440 M208.640 405.440 C 208.640 405.616,209.036 405.750,209.520 405.738 C 210.300 405.718,210.327 405.684,209.760 405.440 C 208.886 405.064,208.640 405.064,208.640 405.440 M172.320 406.080 C 171.753 406.324,171.780 406.358,172.560 406.378 C 173.044 406.390,173.440 406.256,173.440 406.080 C 173.440 405.704,173.194 405.704,172.320 406.080 M170.240 406.720 C 169.866 406.962,169.954 407.031,170.640 407.035 C 171.124 407.038,171.520 406.896,171.520 406.720 C 171.520 406.315,170.866 406.315,170.240 406.720 M168.000 407.360 L 167.200 407.616 168.080 407.648 C 168.564 407.666,168.960 407.536,168.960 407.360 C 168.960 407.184,168.924 407.054,168.880 407.072 C 168.836 407.089,168.440 407.219,168.000 407.360 M204.964 407.993 C 204.689 408.438,205.375 409.600,205.912 409.600 C 206.663 409.600,206.816 408.956,206.222 408.300 C 205.598 407.610,205.253 407.526,204.964 407.993 M230.564 407.993 C 230.289 408.438,230.975 409.600,231.512 409.600 C 232.263 409.600,232.416 408.956,231.822 408.300 C 231.198 407.610,230.853 407.526,230.564 407.993 M332.160 410.400 C 331.834 410.793,331.856 410.880,332.281 410.880 C 332.566 410.880,332.800 410.664,332.800 410.400 C 332.800 410.136,332.746 409.920,332.679 409.920 C 332.613 409.920,332.379 410.136,332.160 410.400 M251.044 413.113 C 250.769 413.558,251.455 414.720,251.992 414.720 C 252.743 414.720,252.896 414.076,252.302 413.420 C 251.678 412.730,251.333 412.646,251.044 413.113 M312.484 418.233 C 312.209 418.678,312.895 419.840,313.432 419.840 C 314.183 419.840,314.336 419.196,313.742 418.540 C 313.118 417.850,312.773 417.766,312.484 418.233 " stroke="none" fill="#ebab85" fill-rule="evenodd"></path><path id="path1" d="M157.521 19.360 C 157.524 20.064,157.590 20.314,157.666 19.916 C 157.743 19.518,157.740 18.942,157.660 18.636 C 157.580 18.330,157.517 18.656,157.521 19.360 M225.924 118.663 C 224.058 125.475,221.496 132.616,218.843 138.400 C 218.439 139.280,218.138 140.108,218.174 140.240 C 218.210 140.372,218.088 140.480,217.901 140.480 C 217.715 140.480,217.651 140.624,217.760 140.800 C 217.869 140.976,217.797 141.120,217.600 141.120 C 217.403 141.120,217.321 141.247,217.417 141.402 C 217.513 141.558,217.295 142.062,216.932 142.522 C 216.570 142.983,216.392 143.362,216.537 143.365 C 216.682 143.368,216.656 143.476,216.480 143.605 C 216.304 143.734,215.733 144.668,215.211 145.680 C 214.689 146.692,214.149 147.520,214.011 147.520 C 213.873 147.520,213.760 147.736,213.760 148.000 C 213.760 148.264,213.616 148.480,213.440 148.480 C 213.264 148.480,213.120 148.630,213.120 148.814 C 213.120 148.998,212.760 149.536,212.320 150.011 C 211.880 150.485,211.520 151.001,211.520 151.158 C 211.520 151.465,209.841 153.523,208.405 154.976 C 207.918 155.469,207.556 156.009,207.600 156.176 C 207.644 156.343,207.568 156.480,207.431 156.480 C 207.295 156.480,206.735 156.889,206.187 157.389 C 205.640 157.889,204.492 158.861,203.636 159.549 C 202.780 160.237,202.008 160.872,201.920 160.960 C 201.683 161.197,200.414 161.898,198.080 163.080 C 190.340 166.999,183.721 165.239,174.802 156.890 C 173.528 155.696,172.484 154.592,172.482 154.435 C 172.481 154.279,172.280 153.991,172.036 153.795 C 171.791 153.600,170.486 151.928,169.134 150.080 C 167.783 148.232,166.507 146.501,166.299 146.234 C 165.365 145.036,163.588 142.158,163.383 141.512 C 163.259 141.120,163.023 140.800,162.858 140.800 C 162.694 140.800,162.560 140.631,162.560 140.425 C 162.560 140.219,162.365 139.823,162.126 139.545 C 161.888 139.267,161.289 138.248,160.795 137.280 C 160.301 136.312,159.750 135.232,159.571 134.880 C 157.480 130.774,152.000 118.979,152.000 118.585 C 152.000 118.506,151.861 118.076,151.691 117.628 L 151.382 116.815 144.091 119.327 C 133.441 122.996,120.632 127.839,116.960 129.584 C 110.534 132.639,105.435 139.477,93.447 161.120 C 91.108 165.344,88.078 170.528,86.715 172.640 C 74.565 191.462,55.680 232.601,55.680 240.245 C 55.680 247.426,77.685 263.983,115.136 284.984 C 116.185 285.573,116.744 286.079,116.641 286.349 C 116.485 286.759,117.517 288.521,118.225 289.052 C 118.409 289.190,118.056 289.219,117.440 289.115 C 116.520 288.960,116.245 289.049,115.898 289.614 C 115.347 290.513,115.315 290.492,118.873 291.550 C 122.496 292.627,123.689 292.471,123.406 290.958 C 123.315 290.475,123.149 289.360,123.036 288.480 C 122.923 287.600,122.332 284.072,121.723 280.640 C 121.114 277.208,120.187 271.880,119.663 268.800 C 118.548 262.249,118.014 259.926,117.773 260.581 C 117.516 261.280,111.918 256.486,108.188 252.372 C 106.500 250.512,103.896 247.885,102.400 246.535 C 95.137 239.979,92.480 237.003,92.480 235.423 C 92.480 235.158,93.793 232.732,95.399 230.031 C 101.398 219.937,103.788 215.866,110.400 204.480 C 114.131 198.056,117.548 192.167,117.993 191.393 L 118.802 189.986 119.202 190.913 C 119.422 191.423,120.643 194.216,121.914 197.120 C 128.839 212.935,135.620 232.267,134.900 234.144 C 134.733 234.579,135.462 234.611,141.356 234.425 C 148.402 234.203,177.743 233.510,203.520 232.958 C 212.056 232.775,224.512 232.487,231.200 232.317 C 237.888 232.147,244.052 232.006,244.899 232.004 C 245.745 232.002,246.366 231.883,246.277 231.741 C 245.638 230.705,249.151 215.283,251.165 210.288 C 253.056 205.599,255.179 196.260,256.342 187.520 C 256.839 183.785,256.884 183.732,258.113 185.385 C 276.265 209.785,287.649 224.488,289.721 226.208 C 291.619 227.782,288.703 232.700,281.166 240.640 C 280.080 241.784,277.609 244.432,275.676 246.525 C 272.198 250.290,269.696 252.401,264.880 255.634 L 262.400 257.300 262.380 256.410 L 262.359 255.520 262.038 256.320 C 261.861 256.760,261.157 260.864,260.474 265.440 C 259.791 270.016,258.781 276.776,258.230 280.462 C 257.679 284.149,257.276 287.929,257.334 288.863 C 257.392 289.797,257.332 290.561,257.200 290.560 C 256.756 290.560,256.945 292.814,257.404 292.991 C 257.932 293.193,258.375 295.079,257.956 295.339 C 257.542 295.596,257.375 296.809,257.760 296.757 C 257.936 296.733,263.815 295.246,270.825 293.453 C 277.834 291.659,285.034 289.853,286.825 289.438 L 290.080 288.685 287.237 288.662 C 284.797 288.643,282.508 288.392,279.445 287.807 C 278.928 287.708,278.750 287.472,278.805 286.957 C 278.877 286.277,278.765 286.242,276.366 286.206 C 274.778 286.181,273.763 286.024,273.612 285.779 C 273.480 285.566,273.171 285.429,272.926 285.475 C 272.004 285.649,269.630 285.023,269.006 284.443 C 268.643 284.104,267.895 283.840,267.300 283.840 C 265.851 283.840,265.982 283.497,267.769 282.610 C 287.513 272.816,305.571 257.851,316.806 241.969 C 324.163 231.568,324.515 228.117,319.123 219.273 C 298.541 185.519,288.516 167.278,283.730 154.880 C 278.909 142.391,269.110 131.881,256.000 125.139 C 251.341 122.743,247.122 121.258,227.314 115.041 C 227.089 114.970,226.552 116.367,225.924 118.663 M117.684 234.786 C 118.082 234.863,118.658 234.860,118.964 234.780 C 119.270 234.700,118.944 234.637,118.240 234.641 C 117.536 234.644,117.286 234.710,117.684 234.786 M128.181 381.154 C 128.396 381.502,129.186 381.532,129.390 381.200 C 129.472 381.068,129.193 380.939,128.771 380.914 C 128.349 380.889,128.084 380.997,128.181 381.154 M125.009 381.520 C 125.091 381.652,125.501 381.760,125.920 381.760 C 126.339 381.760,126.749 381.652,126.831 381.520 C 126.912 381.388,126.502 381.280,125.920 381.280 C 125.338 381.280,124.928 381.388,125.009 381.520 M119.788 381.833 C 120.275 382.143,122.160 382.148,122.349 381.840 C 122.430 381.708,121.803 381.599,120.956 381.598 C 120.109 381.597,119.583 381.703,119.788 381.833 M114.521 382.169 C 114.676 382.324,115.216 382.398,115.721 382.335 C 116.567 382.230,116.545 382.208,115.440 382.055 C 114.752 381.959,114.360 382.008,114.521 382.169 M108.800 382.400 C 109.894 382.750,110.735 382.750,109.920 382.400 C 109.568 382.249,108.992 382.129,108.640 382.134 C 108.126 382.142,108.157 382.194,108.800 382.400 M100.667 383.138 C 100.977 383.312,101.447 383.312,101.836 383.138 C 102.373 382.899,102.282 382.848,101.317 382.848 C 100.450 382.848,100.282 382.923,100.667 383.138 M93.360 383.586 C 93.756 383.662,94.404 383.662,94.800 383.586 C 95.196 383.510,94.872 383.447,94.080 383.447 C 93.288 383.447,92.964 383.510,93.360 383.586 M90.640 383.901 C 90.948 383.981,91.452 383.981,91.760 383.901 C 92.068 383.820,91.816 383.754,91.200 383.754 C 90.584 383.754,90.332 383.820,90.640 383.901 M88.400 384.221 C 88.708 384.301,89.212 384.301,89.520 384.221 C 89.828 384.140,89.576 384.074,88.960 384.074 C 88.344 384.074,88.092 384.140,88.400 384.221 M247.441 385.120 C 247.444 385.824,247.510 386.074,247.586 385.676 C 247.663 385.278,247.660 384.702,247.580 384.396 C 247.500 384.090,247.437 384.416,247.441 385.120 M80.800 385.431 C 79.103 385.990,79.720 386.003,81.920 385.454 C 82.888 385.212,83.320 385.013,82.880 385.012 C 82.440 385.010,81.504 385.199,80.800 385.431 M73.355 388.801 C 71.618 389.961,69.721 391.662,71.040 390.877 C 71.521 390.591,75.242 387.894,75.493 387.650 C 75.979 387.177,74.987 387.711,73.355 388.801 M247.406 390.720 C 247.223 394.322,245.023 399.933,242.386 403.520 C 240.708 405.803,240.442 406.240,240.906 405.954 C 243.383 404.423,247.991 393.873,247.592 390.648 L 247.462 389.600 247.406 390.720 M67.256 394.282 C 66.846 394.787,66.630 395.195,66.776 395.190 C 67.073 395.179,68.285 393.609,68.111 393.460 C 68.050 393.408,67.665 393.777,67.256 394.282 M65.374 396.880 C 64.746 397.706,63.433 400.190,63.217 400.960 C 63.094 401.400,63.521 400.752,64.166 399.520 C 64.811 398.288,65.487 397.100,65.669 396.880 C 65.850 396.660,65.926 396.480,65.838 396.480 C 65.750 396.480,65.542 396.660,65.374 396.880 M62.450 404.890 C 62.405 406.851,62.994 409.280,63.515 409.280 C 63.618 409.280,63.524 408.956,63.307 408.560 C 63.089 408.164,62.818 406.688,62.705 405.280 L 62.499 402.720 62.450 404.890 M144.080 409.181 C 144.388 409.261,144.892 409.261,145.200 409.181 C 145.508 409.100,145.256 409.034,144.640 409.034 C 144.024 409.034,143.772 409.100,144.080 409.181 M140.244 409.510 C 140.731 409.583,141.451 409.581,141.844 409.505 C 142.238 409.429,141.840 409.369,140.960 409.372 C 140.080 409.374,139.758 409.436,140.244 409.510 M64.303 410.382 C 65.216 411.354,65.420 411.419,64.980 410.598 C 64.803 410.266,64.405 409.898,64.096 409.780 C 63.678 409.619,63.731 409.773,64.303 410.382 M135.926 409.832 C 136.501 409.903,137.365 409.902,137.846 409.829 C 138.327 409.756,137.856 409.697,136.800 409.699 C 135.744 409.701,135.351 409.761,135.926 409.832 M131.446 410.152 C 132.021 410.223,132.885 410.222,133.366 410.149 C 133.847 410.076,133.376 410.017,132.320 410.019 C 131.264 410.021,130.871 410.081,131.446 410.152 M112.160 411.200 C 112.512 411.351,113.016 411.475,113.280 411.475 C 113.583 411.475,113.523 411.373,113.120 411.200 C 112.768 411.049,112.264 410.925,112.000 410.925 C 111.697 410.925,111.757 411.027,112.160 411.200 M83.920 414.301 C 84.228 414.381,84.732 414.381,85.040 414.301 C 85.348 414.220,85.096 414.154,84.480 414.154 C 83.864 414.154,83.612 414.220,83.920 414.301 " stroke="none" fill="#9b9393" fill-rule="evenodd"></path><path id="path2" d="M179.446 0.872 C 180.021 0.943,180.885 0.942,181.366 0.869 C 181.847 0.796,181.376 0.737,180.320 0.739 C 179.264 0.741,178.871 0.801,179.446 0.872 M185.513 0.871 C 186.081 0.942,187.089 0.943,187.753 0.874 C 188.417 0.804,187.952 0.746,186.720 0.745 C 185.488 0.744,184.945 0.800,185.513 0.871 M175.360 1.296 C 174.820 1.479,175.081 1.507,176.160 1.383 C 177.040 1.281,177.820 1.144,177.893 1.079 C 178.145 0.854,176.159 1.024,175.360 1.296 M189.680 1.186 C 190.076 1.262,190.724 1.262,191.120 1.186 C 191.516 1.110,191.192 1.047,190.400 1.047 C 189.608 1.047,189.284 1.110,189.680 1.186 M192.400 1.501 C 192.708 1.581,193.212 1.581,193.520 1.501 C 193.828 1.420,193.576 1.354,192.960 1.354 C 192.344 1.354,192.092 1.420,192.400 1.501 M171.680 2.240 C 171.277 2.413,171.217 2.515,171.520 2.515 C 171.784 2.515,172.288 2.391,172.640 2.240 C 173.043 2.067,173.103 1.965,172.800 1.965 C 172.536 1.965,172.032 2.089,171.680 2.240 M162.023 8.778 C 161.526 9.382,160.862 10.354,160.546 10.938 C 159.994 11.959,159.994 11.970,160.546 11.208 C 160.862 10.773,161.587 9.801,162.158 9.048 C 163.398 7.414,163.303 7.223,162.023 8.778 M224.412 24.160 C 224.414 25.040,224.476 25.362,224.550 24.876 C 224.623 24.389,224.621 23.669,224.545 23.276 C 224.469 22.882,224.409 23.280,224.412 24.160 M171.088 48.176 C 163.954 49.594,161.667 51.727,164.269 54.536 C 164.719 55.021,165.304 56.424,165.732 58.044 C 167.416 64.420,170.697 66.905,177.376 66.867 C 183.267 66.833,186.824 63.571,188.324 56.827 C 189.456 51.739,192.561 51.913,193.857 57.137 C 195.540 63.912,198.327 66.516,204.217 66.815 C 211.118 67.165,214.749 64.439,216.432 57.642 C 216.951 55.544,217.698 54.080,218.247 54.080 C 218.419 54.080,218.560 53.306,218.560 52.359 L 218.560 50.639 216.936 49.940 C 211.830 47.744,204.241 47.062,199.029 48.333 C 194.796 49.364,187.402 49.381,183.255 48.369 C 179.943 47.561,174.607 47.476,171.088 48.176 M183.663 49.438 C 187.911 50.765,188.805 53.979,186.573 59.905 C 184.337 65.841,175.909 68.240,170.310 64.535 C 166.344 61.909,164.775 51.748,168.073 50.042 C 170.828 48.617,179.910 48.266,183.663 49.438 M212.438 49.434 C 215.736 50.458,216.614 53.532,215.187 59.053 C 212.877 67.989,199.611 69.077,195.827 60.640 C 192.771 53.828,194.081 50.234,200.086 48.957 C 202.249 48.497,210.441 48.813,212.438 49.434 M21.240 276.637 C 18.202 277.298,15.883 278.548,14.222 280.420 C 8.576 286.781,1.096 301.783,0.440 308.060 C -0.018 312.438,5.163 317.494,26.122 333.120 C 31.433 337.080,38.636 342.450,42.129 345.053 C 45.622 347.656,49.696 350.724,51.183 351.872 C 56.721 356.148,59.630 357.399,76.640 362.820 C 98.821 369.889,112.007 374.088,115.520 375.201 C 117.368 375.787,121.904 377.234,125.600 378.418 L 132.320 380.570 136.398 379.997 C 139.414 379.573,141.378 379.478,143.932 379.633 C 147.686 379.861,149.010 379.623,155.261 377.597 C 158.935 376.406,158.642 376.361,158.893 378.160 C 159.584 383.121,163.863 402.700,164.621 404.368 C 164.873 404.922,165.176 405.894,165.295 406.528 C 165.552 407.896,165.458 407.886,168.754 406.900 C 170.187 406.472,176.040 404.721,181.760 403.010 C 187.480 401.299,192.379 399.879,192.646 399.854 C 192.913 399.830,193.273 399.724,193.446 399.620 C 193.619 399.515,195.560 398.897,197.760 398.247 C 199.960 397.596,204.928 396.080,208.800 394.876 C 222.143 390.730,227.090 389.345,225.760 390.128 C 225.408 390.336,225.048 390.602,224.960 390.721 C 224.770 390.978,215.171 396.624,205.520 402.155 C 204.772 402.584,204.160 403.036,204.160 403.159 C 204.160 403.541,210.531 405.495,210.958 405.244 C 211.417 404.974,222.657 396.949,228.160 392.962 C 230.184 391.495,232.560 389.793,233.440 389.178 C 234.320 388.564,235.383 387.796,235.802 387.472 C 236.221 387.147,237.157 386.729,237.882 386.542 C 240.114 385.965,245.530 384.303,246.880 383.781 C 247.584 383.508,252.768 381.946,258.400 380.310 C 264.032 378.674,271.592 376.450,275.200 375.368 C 281.920 373.352,294.046 369.833,314.400 363.992 C 338.003 357.219,340.953 355.641,368.320 335.161 C 384.898 322.754,394.712 313.978,395.845 310.546 C 397.772 304.707,385.316 280.859,378.740 277.796 C 374.862 275.990,353.071 275.446,344.000 276.929 C 336.992 278.074,324.712 280.785,306.880 285.123 C 304.680 285.658,300.288 286.670,297.120 287.371 C 293.952 288.072,290.856 288.790,290.240 288.966 C 289.624 289.142,288.328 289.417,287.360 289.576 C 286.392 289.735,284.304 290.239,282.720 290.695 C 281.136 291.151,278.904 291.731,277.760 291.983 C 276.616 292.236,273.520 293.007,270.880 293.697 C 268.240 294.386,264.208 295.413,261.920 295.978 C 254.473 297.818,252.605 298.479,234.080 305.822 C 215.563 313.161,200.617 319.882,193.224 324.194 C 190.609 325.720,191.380 325.779,186.069 323.642 C 164.741 315.058,142.531 307.037,129.440 303.191 C 127.152 302.519,125.242 301.944,125.196 301.914 C 125.150 301.883,124.765 299.880,124.341 297.461 C 123.441 292.328,123.756 292.881,121.489 292.462 C 120.490 292.277,117.717 291.486,115.326 290.703 C 112.935 289.920,110.418 289.280,109.732 289.280 C 107.803 289.280,101.001 287.871,89.440 285.078 C 67.327 279.735,57.299 277.597,49.971 276.663 C 44.777 276.001,24.249 275.983,21.240 276.637 M69.410 302.227 C 78.418 302.745,90.468 305.379,99.040 308.705 C 105.414 311.177,108.681 313.111,120.640 321.487 C 124.072 323.890,130.057 328.049,133.940 330.728 C 137.823 333.407,141.423 335.992,141.940 336.472 C 142.457 336.952,143.289 337.557,143.790 337.816 C 144.290 338.075,144.634 338.353,144.553 338.434 C 144.351 338.635,142.405 337.502,142.402 337.181 C 142.401 337.039,142.256 337.011,142.080 337.120 C 141.904 337.229,141.760 337.165,141.760 336.979 C 141.760 336.792,141.508 336.637,141.200 336.633 C 140.892 336.629,139.776 336.152,138.720 335.574 C 112.644 321.299,99.367 315.287,88.017 312.615 C 81.057 310.976,75.186 308.877,70.105 306.212 C 65.122 303.598,62.945 301.632,65.360 301.927 C 65.932 301.997,67.755 302.132,69.410 302.227 M326.080 302.509 C 326.080 303.943,313.213 309.491,302.560 312.651 C 282.976 318.458,242.742 336.489,198.240 359.401 C 196.410 360.343,196.365 360.351,197.280 359.566 C 197.808 359.113,198.346 358.738,198.474 358.732 C 198.603 358.725,199.107 358.356,199.594 357.911 C 203.257 354.563,248.253 325.018,255.147 321.434 C 271.391 312.989,294.441 306.450,321.600 302.582 C 325.626 302.008,326.080 302.001,326.080 302.509 " stroke="none" fill="#212121" fill-rule="evenodd"></path><path id="path3" d="M224.721 24.480 C 224.724 25.184,224.790 25.434,224.866 25.036 C 224.943 24.638,224.940 24.062,224.860 23.756 C 224.780 23.450,224.717 23.776,224.721 24.480 M192.568 30.315 C 193.321 30.382,194.473 30.381,195.128 30.313 C 195.784 30.244,195.168 30.189,193.760 30.190 C 192.352 30.191,191.816 30.247,192.568 30.315 M259.440 231.586 C 259.836 231.662,260.484 231.662,260.880 231.586 C 261.276 231.510,260.952 231.447,260.160 231.447 C 259.368 231.447,259.044 231.510,259.440 231.586 M262.646 231.592 C 263.221 231.663,264.085 231.662,264.566 231.589 C 265.047 231.516,264.576 231.457,263.520 231.459 C 262.464 231.461,262.071 231.521,262.646 231.592 M247.770 231.916 C 248.611 231.982,249.907 231.981,250.650 231.914 C 251.392 231.847,250.704 231.793,249.120 231.794 C 247.536 231.795,246.928 231.849,247.770 231.916 M239.600 232.231 C 240.172 232.302,241.108 232.302,241.680 232.231 C 242.252 232.161,241.784 232.102,240.640 232.102 C 239.496 232.102,239.028 232.161,239.600 232.231 M225.520 232.551 C 226.092 232.622,227.028 232.622,227.600 232.551 C 228.172 232.481,227.704 232.422,226.560 232.422 C 225.416 232.422,224.948 232.481,225.520 232.551 M212.080 232.871 C 212.652 232.942,213.588 232.942,214.160 232.871 C 214.732 232.801,214.264 232.742,213.120 232.742 C 211.976 232.742,211.508 232.801,212.080 232.871 M196.720 233.196 C 197.644 233.261,199.156 233.261,200.080 233.196 C 201.004 233.131,200.248 233.078,198.400 233.078 C 196.552 233.078,195.796 233.131,196.720 233.196 M183.611 233.516 C 184.541 233.581,185.981 233.580,186.811 233.515 C 187.641 233.449,186.880 233.396,185.120 233.397 C 183.360 233.398,182.681 233.451,183.611 233.516 M169.680 233.835 C 170.516 233.901,171.884 233.901,172.720 233.835 C 173.556 233.769,172.872 233.715,171.200 233.715 C 169.528 233.715,168.844 233.769,169.680 233.835 M155.440 234.151 C 156.012 234.222,156.948 234.222,157.520 234.151 C 158.092 234.081,157.624 234.022,156.480 234.022 C 155.336 234.022,154.868 234.081,155.440 234.151 M142.800 234.475 C 143.636 234.541,145.004 234.541,145.840 234.475 C 146.676 234.409,145.992 234.355,144.320 234.355 C 142.648 234.355,141.964 234.409,142.800 234.475 M122.012 234.797 C 123.030 234.861,124.614 234.860,125.532 234.796 C 126.449 234.731,125.616 234.679,123.680 234.680 C 121.744 234.680,120.993 234.733,122.012 234.797 M188.724 265.745 C 179.570 269.256,181.659 285.149,191.270 285.113 C 200.080 285.080,202.921 271.306,195.119 266.452 C 193.346 265.350,190.558 265.041,188.724 265.745 M36.240 276.075 C 37.076 276.141,38.444 276.141,39.280 276.075 C 40.116 276.009,39.432 275.955,37.760 275.955 C 36.088 275.955,35.404 276.009,36.240 276.075 M357.360 276.074 C 358.108 276.142,359.332 276.142,360.080 276.074 C 360.828 276.007,360.216 275.952,358.720 275.952 C 357.224 275.952,356.612 276.007,357.360 276.074 M257.052 289.120 C 257.054 290.000,257.116 290.322,257.190 289.836 C 257.263 289.349,257.261 288.629,257.185 288.236 C 257.109 287.842,257.049 288.240,257.052 289.120 M111.543 289.243 C 111.446 289.400,111.761 289.605,112.243 289.698 C 112.725 289.791,113.660 290.008,114.320 290.180 C 115.006 290.359,115.520 290.370,115.520 290.206 C 115.520 290.049,115.316 289.920,115.067 289.920 C 114.817 289.920,114.565 289.798,114.507 289.649 C 114.354 289.259,111.753 288.904,111.543 289.243 M256.526 293.560 C 256.398 294.770,256.372 295.838,256.467 295.934 C 256.562 296.029,256.640 295.732,256.640 295.274 C 256.640 294.816,256.760 294.108,256.907 293.701 C 257.055 293.293,257.081 292.600,256.966 292.160 C 256.815 291.581,256.694 291.967,256.526 293.560 M122.720 292.160 C 122.368 292.311,122.152 292.456,122.240 292.482 C 123.104 292.736,123.520 292.674,123.520 292.292 C 123.520 292.043,123.484 291.850,123.440 291.862 C 123.396 291.875,123.072 292.009,122.720 292.160 M256.640 296.790 C 256.640 297.075,256.828 297.188,257.118 297.076 C 257.381 296.976,257.517 296.764,257.419 296.606 C 257.140 296.155,256.640 296.272,256.640 296.790 M138.506 379.678 C 138.448 379.734,137.968 379.850,137.440 379.935 C 136.912 380.021,135.573 380.258,134.465 380.462 C 133.357 380.666,132.151 380.739,131.785 380.623 C 131.340 380.481,131.192 380.528,131.339 380.766 C 131.602 381.192,130.903 381.226,130.258 380.818 C 129.942 380.618,129.672 380.695,129.398 381.063 C 129.056 381.523,128.900 381.540,128.309 381.178 C 127.725 380.821,127.533 380.833,127.064 381.258 C 126.440 381.823,125.260 381.925,124.960 381.440 C 124.657 380.950,123.008 381.060,122.560 381.600 C 122.080 382.178,120.901 382.216,119.469 381.698 C 118.586 381.379,118.224 381.405,117.275 381.858 C 115.990 382.471,114.699 382.564,114.391 382.065 C 114.192 381.743,112.665 381.829,112.073 382.195 C 111.446 382.582,109.821 382.693,108.850 382.414 C 108.106 382.201,107.511 382.250,106.690 382.593 C 105.753 382.985,105.367 382.997,104.454 382.667 C 103.503 382.323,103.217 382.346,102.392 382.834 C 101.559 383.326,101.287 383.346,100.300 382.989 C 99.525 382.709,99.094 382.685,98.943 382.913 C 98.542 383.514,97.665 383.649,96.649 383.265 C 95.842 382.961,95.599 382.973,95.379 383.330 C 95.184 383.644,94.683 383.723,93.633 383.605 C 92.746 383.505,92.160 383.567,92.160 383.761 C 92.160 383.953,91.641 384.015,90.880 383.913 C 90.021 383.797,89.669 383.853,89.810 384.081 C 89.953 384.313,89.542 384.355,88.514 384.214 C 87.552 384.082,87.078 384.122,87.202 384.324 C 87.312 384.501,87.030 384.640,86.560 384.640 C 86.083 384.640,85.807 384.502,85.920 384.320 C 86.029 384.144,85.806 384.000,85.425 384.000 C 84.916 384.000,84.785 384.138,84.932 384.521 C 85.098 384.956,84.968 385.010,84.150 384.846 C 83.610 384.738,83.245 384.773,83.338 384.925 C 83.550 385.267,81.051 385.694,80.571 385.397 C 80.346 385.258,80.314 385.331,80.481 385.601 C 80.674 385.914,80.564 385.975,80.050 385.840 C 79.671 385.741,79.360 385.806,79.360 385.984 C 79.360 386.163,79.144 386.226,78.880 386.124 C 78.616 386.023,78.400 386.095,78.400 386.284 C 78.400 386.474,78.184 386.546,77.920 386.444 C 77.656 386.343,77.440 386.408,77.440 386.589 C 77.440 386.770,77.296 386.829,77.120 386.720 C 76.944 386.611,76.800 386.670,76.800 386.851 C 76.800 387.032,76.595 387.101,76.345 387.005 C 76.081 386.904,75.734 387.121,75.520 387.520 C 75.299 387.934,74.962 388.137,74.679 388.028 C 74.419 387.929,74.281 387.967,74.371 388.113 C 74.612 388.503,72.689 389.828,72.264 389.565 C 72.050 389.433,71.989 389.483,72.116 389.689 C 72.348 390.065,71.090 391.109,70.697 390.866 C 70.566 390.785,70.095 391.151,69.650 391.679 C 69.205 392.208,68.688 392.640,68.501 392.640 C 68.313 392.640,68.155 392.892,68.149 393.200 C 68.136 393.884,66.997 395.310,66.640 395.090 C 66.499 395.002,66.137 395.358,65.838 395.880 C 65.538 396.403,65.431 396.745,65.600 396.640 C 65.769 396.535,65.662 396.877,65.362 397.400 C 65.063 397.922,64.707 398.281,64.572 398.198 C 64.438 398.115,64.422 398.294,64.538 398.596 C 64.683 398.974,64.629 399.071,64.366 398.909 C 64.156 398.779,64.011 398.791,64.045 398.936 C 64.169 399.481,63.600 400.949,63.330 400.781 C 63.174 400.685,63.133 400.830,63.238 401.103 C 63.343 401.377,63.274 401.600,63.084 401.600 C 62.895 401.600,62.823 401.816,62.924 402.080 C 63.026 402.344,62.985 402.560,62.834 402.560 C 62.683 402.560,62.560 403.698,62.560 405.089 C 62.560 406.481,62.653 407.562,62.766 407.492 C 62.977 407.361,63.497 409.033,63.306 409.229 C 63.248 409.289,63.607 409.552,64.105 409.813 C 64.660 410.103,64.943 410.462,64.837 410.739 C 64.637 411.259,65.547 411.829,66.205 411.595 C 66.476 411.499,66.562 411.578,66.426 411.798 C 66.296 412.008,66.412 412.160,66.701 412.160 C 66.976 412.160,67.457 412.417,67.771 412.731 C 68.319 413.279,68.586 413.348,70.689 413.486 C 71.318 413.527,71.566 413.685,71.455 413.973 C 71.248 414.513,72.059 414.531,72.598 414.000 C 72.922 413.680,73.085 413.711,73.417 414.160 C 73.846 414.740,75.070 414.966,74.720 414.400 C 74.611 414.224,74.807 414.080,75.154 414.080 C 75.502 414.080,75.835 414.222,75.893 414.395 C 76.200 415.302,83.158 415.327,83.459 414.422 C 83.615 413.956,84.982 413.990,85.784 414.480 C 86.335 414.816,86.505 414.791,86.855 414.320 C 87.364 413.634,88.275 413.590,88.524 414.240 C 88.793 414.940,89.497 414.827,89.701 414.050 C 89.848 413.487,90.034 413.414,90.858 413.595 C 91.523 413.741,91.840 413.688,91.840 413.431 C 91.840 413.221,92.054 413.138,92.320 413.246 C 92.584 413.353,93.016 413.527,93.280 413.634 C 93.588 413.759,93.760 413.644,93.760 413.314 C 93.760 412.699,94.124 412.652,94.669 413.197 C 94.986 413.514,95.119 413.510,95.324 413.179 C 95.490 412.909,95.879 412.838,96.430 412.976 C 97.083 413.140,97.280 413.071,97.280 412.682 C 97.280 412.256,97.410 412.233,98.079 412.538 C 98.742 412.840,98.990 412.800,99.537 412.305 C 100.080 411.814,100.305 411.776,100.814 412.094 C 101.639 412.610,102.096 412.580,102.533 411.982 C 102.848 411.552,103.100 411.539,104.394 411.885 C 105.724 412.240,105.961 412.222,106.515 411.721 C 107.060 411.227,107.303 411.205,108.431 411.543 C 109.531 411.873,109.895 411.849,110.874 411.384 C 111.831 410.930,112.214 410.901,113.151 411.210 C 114.019 411.497,114.495 411.492,115.224 411.190 C 115.844 410.933,116.830 410.873,118.085 411.015 C 119.412 411.165,120.000 411.122,120.000 410.874 C 120.000 410.641,120.862 410.519,122.480 410.524 C 126.902 410.536,130.067 410.373,130.662 410.101 C 130.981 409.955,132.097 409.912,133.142 410.007 C 134.188 410.102,135.040 410.049,135.040 409.890 C 135.040 409.730,135.840 409.600,136.819 409.600 C 137.797 409.600,138.519 409.728,138.422 409.884 C 138.326 410.040,138.570 410.254,138.964 410.359 C 140.037 410.647,142.400 410.599,142.400 410.289 C 142.400 410.140,143.300 410.032,144.400 410.049 C 146.267 410.078,146.407 410.030,146.506 409.328 C 146.606 408.626,146.711 408.590,148.061 408.792 C 149.162 408.958,149.450 408.916,149.266 408.618 C 149.088 408.330,149.248 408.283,149.872 408.439 C 151.044 408.733,150.992 408.647,148.643 406.378 C 141.803 399.774,140.191 390.644,144.331 381.952 C 144.836 380.891,145.173 379.946,145.079 379.852 C 144.897 379.669,138.685 379.504,138.506 379.678 M259.280 380.174 C 258.356 380.497,257.600 380.680,257.600 380.581 C 257.600 380.482,257.384 380.581,257.120 380.800 C 256.856 381.019,256.640 381.116,256.640 381.016 C 256.640 380.915,256.136 381.043,255.520 381.301 C 254.904 381.558,254.400 381.697,254.400 381.609 C 254.400 381.521,253.680 381.733,252.800 382.080 C 251.920 382.427,251.200 382.648,251.200 382.572 C 251.200 382.495,250.696 382.643,250.080 382.901 C 249.464 383.158,248.960 383.277,248.960 383.165 C 248.960 383.053,248.780 383.111,248.560 383.294 C 248.340 383.476,248.016 383.652,247.840 383.685 C 247.664 383.717,247.571 383.910,247.633 384.112 C 249.051 388.711,246.343 398.926,242.294 404.257 C 240.420 406.724,240.363 406.899,241.360 407.138 C 241.756 407.233,243.376 407.677,244.960 408.126 C 246.885 408.670,248.656 408.944,250.301 408.950 C 251.655 408.956,252.851 409.104,252.960 409.280 C 253.075 409.466,254.830 409.600,257.139 409.600 C 259.328 409.600,261.120 409.728,261.120 409.885 C 261.120 410.042,263.214 410.184,265.773 410.201 C 268.332 410.217,270.672 410.355,270.973 410.506 C 271.274 410.657,273.584 410.804,276.107 410.833 C 278.630 410.863,280.934 411.009,281.227 411.158 C 281.520 411.307,283.551 411.448,285.740 411.473 C 287.929 411.497,289.801 411.647,289.900 411.805 C 289.999 411.964,291.852 412.108,294.019 412.125 C 296.185 412.143,298.228 412.302,298.558 412.479 C 298.888 412.655,299.787 412.800,300.555 412.800 C 301.323 412.800,302.089 412.931,302.256 413.092 C 302.423 413.252,303.424 413.472,304.480 413.579 C 305.536 413.687,307.840 413.926,309.600 414.111 C 313.226 414.492,320.006 414.570,322.400 414.260 C 324.365 414.005,329.293 412.791,329.748 412.450 C 331.971 410.781,333.118 409.416,333.609 407.855 C 336.158 399.753,325.675 387.191,314.720 385.219 C 308.958 384.181,305.297 383.722,300.968 383.493 C 299.193 383.399,297.680 383.169,297.560 382.975 C 297.437 382.777,296.880 382.697,296.272 382.791 C 295.682 382.882,293.832 382.819,292.160 382.651 C 288.498 382.284,285.854 382.142,279.520 381.975 C 276.880 381.906,274.216 381.685,273.600 381.484 C 272.965 381.277,271.823 381.206,270.960 381.321 C 269.844 381.469,269.440 381.415,269.440 381.119 C 269.440 380.835,269.100 380.771,268.291 380.903 C 267.624 381.011,266.882 380.928,266.521 380.705 C 266.019 380.394,265.841 380.412,265.590 380.800 C 265.332 381.199,265.247 381.159,265.083 380.560 C 264.850 379.710,263.680 379.561,263.680 380.381 C 263.680 380.852,263.620 380.842,263.219 380.301 C 262.850 379.805,262.642 379.751,262.180 380.034 C 261.748 380.299,261.522 380.287,261.282 379.988 C 261.027 379.672,260.609 379.711,259.280 380.174 M145.200 409.181 C 144.892 409.261,144.388 409.261,144.080 409.181 C 143.772 409.100,144.024 409.034,144.640 409.034 C 145.256 409.034,145.508 409.100,145.200 409.181 M141.844 409.505 C 141.451 409.581,140.731 409.583,140.244 409.510 C 139.758 409.436,140.080 409.374,140.960 409.372 C 141.840 409.369,142.238 409.429,141.844 409.505 " stroke="none" fill="#7b7a7a" fill-rule="evenodd"></path><path id="path4" d="M181.440 0.665 C 181.996 0.860,181.533 0.912,179.928 0.836 C 178.457 0.766,177.687 0.842,177.812 1.043 C 177.932 1.238,177.568 1.309,176.866 1.227 C 176.197 1.149,175.802 1.219,175.912 1.397 C 176.025 1.579,175.689 1.618,175.074 1.495 C 174.351 1.350,174.114 1.397,174.272 1.651 C 174.428 1.905,174.233 1.948,173.621 1.794 C 172.983 1.634,172.810 1.678,172.983 1.958 C 173.150 2.227,173.014 2.287,172.530 2.160 C 172.087 2.045,171.915 2.102,172.050 2.320 C 172.184 2.538,172.012 2.596,171.570 2.480 C 171.191 2.381,170.880 2.439,170.880 2.609 C 170.880 2.779,170.736 2.829,170.560 2.720 C 170.384 2.611,170.240 2.670,170.240 2.851 C 170.240 3.032,170.000 3.088,169.708 2.976 C 169.374 2.847,169.254 2.898,169.386 3.112 C 169.502 3.300,169.374 3.538,169.102 3.643 C 168.821 3.750,168.691 3.697,168.800 3.520 C 168.909 3.343,168.779 3.290,168.498 3.397 C 168.226 3.502,168.082 3.714,168.178 3.870 C 168.275 4.025,168.131 4.067,167.859 3.963 C 167.569 3.852,167.285 3.984,167.169 4.285 C 167.061 4.566,166.862 4.728,166.727 4.644 C 166.591 4.560,166.122 4.813,165.684 5.206 C 165.247 5.599,164.617 6.087,164.284 6.290 C 163.952 6.494,163.720 6.829,163.768 7.034 C 163.816 7.239,163.728 7.328,163.571 7.231 C 163.414 7.134,163.014 7.373,162.683 7.762 C 162.088 8.459,162.089 8.463,162.714 7.994 C 163.198 7.632,163.160 7.756,162.554 8.518 C 162.117 9.068,161.648 9.453,161.512 9.375 C 161.376 9.296,161.285 9.351,161.310 9.496 C 161.428 10.178,161.246 10.577,160.911 10.369 C 160.686 10.231,160.628 10.281,160.762 10.499 C 160.884 10.696,160.702 11.138,160.358 11.482 C 160.015 11.825,159.817 12.191,159.920 12.293 C 160.023 12.396,159.969 12.480,159.801 12.480 C 159.634 12.480,159.473 12.791,159.444 13.171 C 159.415 13.551,159.205 13.981,158.976 14.126 C 158.747 14.271,158.686 14.392,158.839 14.395 C 158.993 14.398,158.939 14.616,158.720 14.880 C 158.501 15.144,158.429 15.360,158.560 15.360 C 158.691 15.360,158.619 15.576,158.400 15.840 C 158.181 16.104,158.109 16.320,158.240 16.320 C 158.371 16.320,158.316 16.515,158.118 16.754 C 157.744 17.205,157.831 24.179,158.251 27.360 C 158.368 28.240,158.503 29.356,158.551 29.840 C 158.600 30.324,158.674 30.756,158.716 30.800 C 158.757 30.844,158.852 31.600,158.928 32.480 C 159.003 33.360,159.139 34.656,159.231 35.360 C 159.322 36.064,159.438 37.072,159.489 37.600 C 159.539 38.128,159.690 38.812,159.825 39.121 C 159.959 39.429,159.979 40.041,159.868 40.481 C 159.743 40.981,159.804 41.280,160.030 41.280 C 160.280 41.280,160.324 41.740,160.172 42.754 C 160.003 43.881,160.043 44.171,160.344 43.985 C 160.643 43.800,160.686 44.061,160.525 45.071 C 160.382 45.967,160.430 46.400,160.672 46.400 C 160.909 46.400,160.960 46.780,160.821 47.520 C 160.679 48.276,160.731 48.640,160.981 48.640 C 161.231 48.640,161.283 49.004,161.141 49.760 C 160.999 50.516,161.051 50.880,161.301 50.880 C 161.549 50.880,161.603 51.241,161.466 51.975 C 161.350 52.593,161.399 53.156,161.580 53.267 C 161.755 53.376,161.814 53.891,161.710 54.412 C 161.582 55.052,161.648 55.360,161.914 55.360 C 162.131 55.360,162.233 55.557,162.140 55.799 C 162.045 56.046,162.573 56.827,163.351 57.591 L 164.729 58.944 165.105 57.804 C 165.513 56.570,164.861 54.526,163.950 54.176 C 162.998 53.811,163.404 50.686,164.460 50.248 C 165.290 49.905,165.365 49.765,165.100 49.068 C 164.696 48.005,164.720 47.273,165.151 47.539 C 165.369 47.674,165.457 47.530,165.384 47.158 C 165.319 46.829,165.585 46.200,165.975 45.760 C 166.364 45.320,166.679 44.832,166.674 44.676 C 166.669 44.519,166.858 44.273,167.093 44.127 C 167.411 43.931,167.525 42.826,167.540 39.792 C 167.554 36.935,167.674 35.682,167.942 35.593 C 168.152 35.523,168.229 35.311,168.113 35.123 C 167.995 34.932,168.051 34.873,168.239 34.990 C 168.425 35.105,169.852 34.710,171.409 34.111 C 179.586 30.970,193.338 29.335,201.440 30.542 C 201.968 30.621,202.976 30.755,203.680 30.841 C 209.019 31.489,214.871 33.475,214.476 34.504 C 214.346 34.842,214.417 34.907,214.712 34.725 C 215.037 34.524,215.084 34.659,214.921 35.312 C 214.793 35.821,214.840 36.160,215.040 36.160 C 215.240 36.160,215.287 36.499,215.159 37.008 C 215.000 37.642,215.048 37.793,215.348 37.608 C 215.653 37.419,215.694 37.607,215.520 38.400 C 215.356 39.147,215.395 39.376,215.659 39.213 C 215.916 39.054,215.964 39.233,215.818 39.813 C 215.697 40.295,215.746 40.640,215.935 40.640 C 216.114 40.640,216.179 40.951,216.080 41.330 C 215.953 41.815,216.013 41.950,216.282 41.783 C 216.561 41.611,216.611 41.794,216.467 42.453 C 216.338 43.044,216.371 43.216,216.562 42.946 C 216.748 42.683,216.808 43.208,216.726 44.386 C 216.631 45.736,216.687 46.110,216.930 45.760 C 217.237 45.319,217.166 47.534,216.816 49.336 C 216.750 49.679,217.045 50.010,217.636 50.255 C 218.581 50.646,219.119 54.080,218.235 54.080 C 217.849 54.080,216.643 55.977,216.641 56.587 C 216.640 57.065,217.306 56.960,217.367 56.472 C 217.389 56.300,217.702 55.913,218.063 55.611 C 218.425 55.309,218.629 55.057,218.517 55.051 C 218.405 55.045,218.799 54.510,219.392 53.862 C 219.986 53.215,220.403 52.617,220.321 52.534 C 220.238 52.451,220.389 52.223,220.657 52.027 C 221.244 51.598,222.843 42.859,222.582 41.504 C 222.462 40.881,222.521 40.677,222.775 40.834 C 223.040 40.998,223.084 40.629,222.933 39.490 C 222.780 38.338,222.815 38.048,223.065 38.400 C 223.315 38.753,223.354 38.456,223.210 37.280 C 223.060 36.061,223.099 35.794,223.372 36.160 C 223.644 36.525,223.684 36.218,223.537 34.880 C 223.394 33.565,223.433 33.241,223.695 33.600 C 223.954 33.957,223.990 33.598,223.835 32.204 C 223.676 30.787,223.719 30.386,224.008 30.565 C 224.297 30.744,224.336 30.399,224.166 29.161 C 224.008 28.017,224.050 27.520,224.303 27.520 C 224.560 27.520,224.609 26.794,224.469 25.040 C 224.325 23.249,224.365 22.693,224.610 23.040 C 224.857 23.388,224.952 22.261,224.955 18.941 C 224.959 15.606,224.861 14.423,224.597 14.587 C 224.334 14.749,224.295 14.399,224.456 13.326 C 224.599 12.376,224.560 11.840,224.350 11.840 C 224.168 11.840,224.103 11.624,224.204 11.360 C 224.306 11.096,224.214 10.880,224.000 10.880 C 223.780 10.880,223.694 10.664,223.802 10.383 C 223.927 10.059,223.864 9.966,223.622 10.116 C 223.378 10.266,223.318 10.172,223.445 9.839 C 223.557 9.549,223.445 9.258,223.185 9.159 C 222.935 9.063,222.808 8.784,222.901 8.539 C 223.271 7.576,218.560 4.486,217.400 4.931 C 217.140 5.031,217.005 4.986,217.101 4.831 C 217.196 4.677,216.808 4.470,216.237 4.371 C 214.631 4.094,208.960 4.153,208.960 4.446 C 208.960 4.590,208.528 4.693,208.001 4.674 C 207.473 4.655,207.041 4.529,207.041 4.394 C 207.040 4.259,206.644 4.234,206.160 4.340 C 205.450 4.495,205.373 4.460,205.760 4.160 C 206.146 3.861,206.062 3.827,205.333 3.987 C 204.724 4.120,204.496 4.072,204.640 3.840 C 204.784 3.606,204.570 3.565,203.979 3.714 C 203.345 3.873,203.169 3.829,203.339 3.554 C 203.509 3.279,203.333 3.235,202.699 3.394 C 202.065 3.553,201.889 3.509,202.059 3.234 C 202.229 2.959,202.053 2.915,201.419 3.074 C 200.785 3.233,200.609 3.189,200.779 2.914 C 200.948 2.641,200.781 2.593,200.187 2.742 C 199.664 2.873,199.360 2.817,199.360 2.589 C 199.360 2.358,199.054 2.305,198.512 2.441 C 197.940 2.584,197.734 2.541,197.879 2.306 C 198.026 2.069,197.710 2.011,196.887 2.125 C 195.949 2.256,195.787 2.213,196.160 1.935 C 196.529 1.659,196.351 1.626,195.394 1.792 C 194.561 1.937,194.216 1.898,194.354 1.675 C 194.490 1.454,194.097 1.394,193.200 1.496 C 192.207 1.609,191.968 1.562,192.314 1.321 C 192.653 1.084,192.245 1.033,190.874 1.141 C 189.594 1.241,189.172 1.196,189.600 1.004 C 190.010 0.820,189.203 0.770,187.360 0.863 C 185.277 0.968,184.613 0.914,184.960 0.669 C 185.315 0.418,184.813 0.337,183.040 0.357 C 181.243 0.377,180.841 0.454,181.440 0.665 M176.720 47.581 C 177.028 47.661,177.532 47.661,177.840 47.581 C 178.148 47.500,177.896 47.434,177.280 47.434 C 176.664 47.434,176.412 47.500,176.720 47.581 M204.240 47.581 C 204.548 47.661,205.052 47.661,205.360 47.581 C 205.668 47.500,205.416 47.434,204.800 47.434 C 204.184 47.434,203.932 47.500,204.240 47.581 M185.844 48.866 C 186.242 48.943,186.818 48.940,187.124 48.860 C 187.430 48.780,187.104 48.717,186.400 48.721 C 185.696 48.724,185.446 48.790,185.844 48.866 M195.124 48.866 C 195.522 48.943,196.098 48.940,196.404 48.860 C 196.710 48.780,196.384 48.717,195.680 48.721 C 194.976 48.724,194.726 48.790,195.124 48.866 M214.720 49.120 C 216.181 49.683,216.756 49.674,215.520 49.108 C 214.992 48.867,214.344 48.673,214.080 48.679 C 213.816 48.684,214.104 48.883,214.720 49.120 M190.000 49.191 C 190.572 49.262,191.508 49.262,192.080 49.191 C 192.652 49.121,192.184 49.062,191.040 49.062 C 189.896 49.062,189.428 49.121,190.000 49.191 M169.875 65.261 C 170.291 65.623,170.783 65.920,170.969 65.920 C 171.362 65.920,171.343 65.904,170.080 65.164 L 169.120 64.602 169.875 65.261 M211.680 65.302 C 211.152 65.640,210.884 65.917,211.085 65.918 C 211.285 65.919,211.789 65.637,212.205 65.291 C 213.156 64.498,212.927 64.503,211.680 65.302 M176.720 66.149 C 177.204 66.223,177.996 66.223,178.480 66.149 C 178.964 66.076,178.568 66.016,177.600 66.016 C 176.632 66.016,176.236 66.076,176.720 66.149 M204.880 66.141 C 205.188 66.221,205.692 66.221,206.000 66.141 C 206.308 66.060,206.056 65.994,205.440 65.994 C 204.824 65.994,204.572 66.060,204.880 66.141 M257.280 231.700 C 242.901 232.107,209.436 232.936,187.520 233.427 C 175.816 233.689,164.080 233.975,161.440 234.062 C 158.800 234.150,146.992 234.385,135.200 234.586 C 123.408 234.786,113.725 234.982,113.681 235.021 C 113.638 235.059,113.819 236.232,114.084 237.626 C 114.349 239.019,115.281 244.408,116.155 249.600 C 117.029 254.792,117.887 259.472,118.062 260.000 C 118.236 260.528,118.734 262.976,119.169 265.440 C 119.603 267.904,120.684 274.024,121.571 279.040 C 122.457 284.056,123.274 289.240,123.386 290.560 C 123.576 292.798,125.010 301.792,125.196 301.914 C 125.242 301.944,127.152 302.519,129.440 303.191 C 142.531 307.037,164.741 315.058,186.069 323.642 C 191.380 325.779,190.609 325.720,193.224 324.194 C 198.073 321.366,207.865 316.714,218.560 312.158 C 227.053 308.540,247.518 300.426,253.280 298.392 C 254.688 297.895,255.868 297.474,255.903 297.455 C 256.054 297.374,256.649 292.970,256.963 289.601 C 257.280 286.211,261.581 256.772,261.920 255.680 C 262.184 254.826,265.658 231.256,265.496 231.415 C 265.465 231.445,261.768 231.573,257.280 231.700 M195.119 266.452 C 202.921 271.306,200.080 285.080,191.270 285.113 C 181.659 285.149,179.570 269.256,188.724 265.745 C 190.558 265.041,193.346 265.350,195.119 266.452 M27.935 276.078 C 29.307 276.138,31.467 276.138,32.735 276.077 C 34.003 276.017,32.880 275.968,30.240 275.968 C 27.600 275.968,26.563 276.018,27.935 276.078 M363.600 276.078 C 364.964 276.138,367.196 276.138,368.560 276.078 C 369.924 276.018,368.808 275.969,366.080 275.969 C 363.352 275.969,362.236 276.018,363.600 276.078 M279.840 291.200 C 279.025 291.550,279.866 291.550,280.960 291.200 C 281.603 290.994,281.634 290.942,281.120 290.934 C 280.768 290.929,280.192 291.049,279.840 291.200 M64.330 302.180 C 64.386 304.334,77.635 310.170,88.017 312.615 C 99.367 315.287,112.644 321.299,138.720 335.574 C 141.872 337.300,142.624 336.663,139.748 334.703 C 138.831 334.078,132.796 329.902,126.337 325.423 C 119.878 320.945,113.398 316.455,111.937 315.447 C 101.764 308.430,84.622 303.101,69.410 302.227 C 67.755 302.132,65.932 301.997,65.360 301.927 C 64.696 301.846,64.324 301.938,64.330 302.180 M321.600 302.582 C 302.331 305.326,283.899 309.730,270.080 314.891 C 256.370 320.011,251.590 322.748,223.600 341.505 C 202.872 355.395,199.698 357.588,199.689 358.019 C 199.684 358.253,199.517 358.337,199.311 358.209 C 199.086 358.071,199.028 358.121,199.162 358.338 C 199.472 358.840,199.001 359.058,217.142 350.019 C 259.675 328.825,284.206 318.094,302.560 312.651 C 311.016 310.143,317.275 307.703,322.480 304.887 C 327.543 302.147,327.394 301.757,321.600 302.582 M143.539 338.070 C 143.880 338.328,144.304 338.540,144.480 338.540 C 144.656 338.540,144.520 338.328,144.179 338.070 C 143.837 337.811,143.414 337.600,143.238 337.600 C 143.062 337.600,143.197 337.811,143.539 338.070 M197.280 359.556 L 196.320 360.370 197.680 359.698 C 199.060 359.017,199.364 358.711,198.640 358.732 C 198.420 358.738,197.808 359.109,197.280 359.556 M155.435 377.508 C 154.596 377.788,153.968 378.075,154.040 378.146 C 154.186 378.292,157.440 377.275,157.440 377.083 C 157.440 376.886,157.057 376.967,155.435 377.508 M158.794 378.880 C 158.794 379.496,158.860 379.748,158.941 379.440 C 159.021 379.132,159.021 378.628,158.941 378.320 C 158.860 378.012,158.794 378.264,158.794 378.880 M151.360 378.776 C 150.568 379.035,148.912 379.452,147.680 379.702 C 145.521 380.139,145.504 380.150,147.200 379.999 C 148.815 379.856,154.380 378.304,153.280 378.303 C 153.016 378.303,152.152 378.516,151.360 378.776 M159.750 384.000 C 159.746 384.440,159.859 385.160,160.000 385.600 C 160.344 386.676,160.344 385.514,160.000 384.160 C 159.781 383.298,159.755 383.281,159.750 384.000 M244.320 384.640 C 243.917 384.813,243.857 384.915,244.160 384.915 C 244.424 384.915,244.928 384.791,245.280 384.640 C 245.683 384.467,245.743 384.365,245.440 384.365 C 245.176 384.365,244.672 384.489,244.320 384.640 M235.735 387.550 C 234.913 388.094,234.146 388.693,234.031 388.879 C 233.916 389.066,234.484 388.763,235.295 388.205 C 236.105 387.647,237.099 387.058,237.504 386.896 C 237.963 386.712,238.050 386.593,237.735 386.580 C 237.457 386.569,236.557 387.005,235.735 387.550 M230.859 390.987 C 229.462 392.013,226.772 393.977,224.880 395.351 C 222.988 396.724,221.440 397.918,221.440 398.003 C 221.440 398.185,221.197 398.352,227.990 393.484 C 232.665 390.134,233.949 389.120,233.517 389.120 C 233.451 389.120,232.255 389.960,230.859 390.987 M224.000 390.272 C 223.032 390.530,217.992 392.053,212.800 393.656 C 207.608 395.259,201.135 397.234,198.416 398.045 C 195.697 398.856,193.522 399.664,193.584 399.840 C 193.797 400.452,203.942 403.496,204.309 403.059 C 204.629 402.676,207.219 401.119,213.920 397.279 C 219.753 393.936,224.798 390.940,224.960 390.721 C 225.048 390.602,225.408 390.342,225.760 390.142 C 226.600 389.666,226.145 389.699,224.000 390.272 M163.264 400.160 C 163.264 400.512,163.379 401.160,163.520 401.600 C 163.723 402.233,163.776 402.267,163.776 401.760 C 163.776 401.408,163.661 400.760,163.520 400.320 C 163.317 399.687,163.264 399.653,163.264 400.160 " stroke="none" fill="#545353" fill-rule="evenodd"></path><path id="path5" d="M216.590 48.160 C 216.527 48.952,216.584 49.600,216.718 49.600 C 216.851 49.600,216.960 48.952,216.960 48.160 C 216.960 47.368,216.902 46.720,216.832 46.720 C 216.762 46.720,216.653 47.368,216.590 48.160 M189.360 48.876 C 190.284 48.941,191.796 48.941,192.720 48.876 C 193.644 48.811,192.888 48.758,191.040 48.758 C 189.192 48.758,188.436 48.811,189.360 48.876 M204.080 48.866 C 204.476 48.942,205.124 48.942,205.520 48.866 C 205.916 48.790,205.592 48.727,204.800 48.727 C 204.008 48.727,203.684 48.790,204.080 48.866 M165.201 58.720 C 165.204 59.424,165.270 59.674,165.346 59.276 C 165.423 58.878,165.420 58.302,165.340 57.996 C 165.260 57.690,165.197 58.016,165.201 58.720 M184.780 64.400 L 183.840 65.440 184.880 64.500 C 185.452 63.983,185.920 63.515,185.920 63.460 C 185.920 63.213,185.656 63.431,184.780 64.400 M197.120 64.480 C 197.717 65.096,198.278 65.600,198.366 65.600 C 198.454 65.600,198.037 65.096,197.440 64.480 C 196.843 63.864,196.282 63.360,196.194 63.360 C 196.106 63.360,196.523 63.864,197.120 64.480 M213.260 64.400 L 212.320 65.440 213.360 64.500 C 213.932 63.983,214.400 63.515,214.400 63.460 C 214.400 63.213,214.136 63.431,213.260 64.400 M206.008 93.454 C 196.815 101.437,183.795 101.382,175.616 93.326 C 174.045 91.780,173.975 91.842,174.908 93.953 C 176.045 96.524,177.942 99.193,179.854 100.912 C 187.992 108.228,203.103 104.224,207.899 93.480 C 208.988 91.042,208.789 91.039,206.008 93.454 " stroke="none" fill="#ac7462" fill-rule="evenodd"></path><path id="path6" d="M182.011 0.236 C 182.941 0.301,184.381 0.300,185.211 0.235 C 186.041 0.169,185.280 0.116,183.520 0.117 C 181.760 0.118,181.081 0.171,182.011 0.236 M177.680 0.541 C 177.988 0.621,178.492 0.621,178.800 0.541 C 179.108 0.460,178.856 0.394,178.240 0.394 C 177.624 0.394,177.372 0.460,177.680 0.541 M188.560 0.541 C 188.868 0.621,189.372 0.621,189.680 0.541 C 189.988 0.460,189.736 0.394,189.120 0.394 C 188.504 0.394,188.252 0.460,188.560 0.541 M162.863 7.280 L 161.760 8.480 162.960 7.377 C 164.077 6.351,164.307 6.080,164.063 6.080 C 164.009 6.080,163.469 6.620,162.863 7.280 M225.087 18.880 C 225.087 21.432,225.137 22.476,225.198 21.200 C 225.258 19.924,225.258 17.836,225.198 16.560 C 225.137 15.284,225.087 16.328,225.087 18.880 M157.514 21.440 C 157.514 22.056,157.580 22.308,157.661 22.000 C 157.741 21.692,157.741 21.188,157.661 20.880 C 157.580 20.572,157.514 20.824,157.514 21.440 M224.714 26.560 C 224.714 27.176,224.780 27.428,224.861 27.120 C 224.941 26.812,224.941 26.308,224.861 26.000 C 224.780 25.692,224.714 25.944,224.714 26.560 M263.740 231.276 C 265.437 231.383,265.569 231.449,265.692 232.255 C 265.812 233.041,265.828 233.025,265.872 232.080 L 265.920 231.040 263.920 231.101 L 261.920 231.161 263.740 231.276 M250.320 231.596 C 251.332 231.660,252.988 231.660,254.000 231.596 C 255.012 231.533,254.184 231.481,252.160 231.481 C 250.136 231.481,249.308 231.533,250.320 231.596 M128.412 234.477 C 129.430 234.541,131.014 234.540,131.932 234.476 C 132.849 234.411,132.016 234.359,130.080 234.360 C 128.144 234.360,127.393 234.413,128.412 234.477 M113.317 235.280 C 113.344 235.797,113.395 235.847,113.498 235.455 C 113.606 235.042,114.079 234.883,115.461 234.796 L 117.280 234.681 115.280 234.621 C 113.392 234.563,113.282 234.600,113.317 235.280 " stroke="none" fill="#a4a4a4" fill-rule="evenodd"></path></g></svg>