<?xml version="1.0" standalone="no"?>
<!DOCTYPE svg PUBLIC "-//W3C//DTD SVG 20010904//EN"
 "http://www.w3.org/TR/2001/REC-SVG-20010904/DTD/svg10.dtd">
<svg version="1.0" xmlns="http://www.w3.org/2000/svg"
 width="600.000000pt" height="200.000000pt" viewBox="0 0 600.000000 200.000000"
 preserveAspectRatio="xMidYMid meet">
<metadata>
Created by potrace 1.15, written by Peter Selinger 2001-2017
</metadata>
<g transform="translate(0.000000,200.000000) scale(0.100000,-0.100000)"
fill="#000000" stroke="none">
<path d="M865 1865 c-57 -53 -95 -79 -130 -91 -298 -101 -497 -324 -561 -627
-73 -348 139 -734 484 -878 75 -31 197 -59 258 -59 29 0 34 3 34 23 0 22 -6
24 -82 34 -97 13 -156 32 -258 82 -107 52 -250 194 -308 306 -164 321 -86 710
186 929 37 29 99 69 137 89 79 39 217 77 282 77 l43 0 0 95 c0 52 -1 95 -2 95
-2 -1 -39 -34 -83 -75z"/>
<path d="M980 1776 c0 -23 4 -26 34 -26 19 0 66 -7 104 -15 346 -72 585 -367
586 -725 2 -383 -263 -687 -646 -742 l-78 -11 0 -73 c0 -40 -3 -79 -6 -88 -12
-30 12 -16 82 49 75 70 89 79 207 126 296 119 497 416 497 733 0 403 -318 760
-707 793 l-73 6 0 -27z"/>
<path d="M542 1214 l3 -136 138 1 137 2 0 -281 0 -280 140 0 140 0 0 280 0
281 128 -1 c70 -1 133 -1 140 -1 9 1 12 35 12 136 l0 135 -420 0 -421 0 3
-136z"/>
<path d="M1870 1175 c0 -24 3 -25 60 -25 l60 0 0 -150 0 -150 25 0 25 0 0 150
0 150 60 0 c57 0 60 1 60 25 l0 25 -145 0 -145 0 0 -25z"/>
<path d="M2220 1025 l0 -175 25 0 c24 0 25 2 25 75 l0 75 90 0 90 0 0 -75 c0
-73 1 -75 25 -75 l25 0 0 175 0 175 -25 0 c-24 0 -25 -2 -25 -75 l0 -75 -90 0
-90 0 0 75 c0 73 -1 75 -25 75 l-25 0 0 -175z"/>
<path d="M2590 1025 l0 -175 110 0 110 0 0 25 c0 25 -1 25 -85 25 l-85 0 0 50
0 50 65 0 c63 0 65 1 65 25 0 24 -2 25 -65 25 l-65 0 0 50 0 50 80 0 c79 0 80
0 80 25 l0 25 -105 0 -105 0 0 -175z"/>
<path d="M2960 1175 c0 -24 3 -25 60 -25 l60 0 0 -150 0 -150 25 0 25 0 0 150
0 150 60 0 c57 0 60 1 60 25 l0 25 -145 0 -145 0 0 -25z"/>
<path d="M3310 1025 l0 -175 25 0 c24 0 25 2 25 70 l0 70 35 0 c33 0 36 -3 70
-70 33 -66 37 -70 69 -70 l34 0 -39 71 c-21 40 -39 73 -39 75 0 2 11 14 25 28
35 35 36 112 0 150 -23 24 -30 26 -115 26 l-90 0 0 -175z"/>
<path d="M3630 1025 l0 -175 25 0 25 0 0 175 0 175 -25 0 -25 0 0 -175z"/>
<path d="M3770 1025 l0 -175 25 0 c24 0 25 2 25 65 l0 65 66 0 c59 0 68 3 95
29 25 25 29 37 29 81 0 44 -4 56 -29 81 -28 28 -33 29 -120 29 l-91 0 0 -175z
m178 93 c11 -23 11 -33 0 -55 -12 -25 -19 -28 -71 -31 l-57 -3 0 61 0 61 57
-3 c52 -3 59 -6 71 -30z"/>
<path d="M4080 1025 l0 -175 25 0 c24 0 25 2 25 65 l0 65 66 0 c59 0 68 3 95
29 25 25 29 37 29 81 0 44 -4 56 -29 81 -28 28 -33 29 -120 29 l-91 0 0 -175z
m178 93 c11 -23 11 -33 0 -55 -12 -25 -19 -28 -71 -31 l-57 -3 0 61 0 61 57
-3 c52 -3 59 -6 71 -30z"/>
<path d="M4330 1196 c0 -2 27 -50 60 -105 58 -98 60 -104 60 -171 0 -68 1 -70
25 -70 24 0 25 2 25 70 0 67 2 73 60 171 33 55 60 103 60 105 0 2 -15 4 -32 4
-31 0 -36 -5 -73 -74 l-40 -74 -40 74 c-37 69 -42 74 -72 74 -18 0 -33 -2 -33
-4z"/>
<path d="M4750 1175 c0 -24 3 -25 60 -25 l60 0 0 -150 0 -150 25 0 25 0 0 150
0 150 60 0 c57 0 60 1 60 25 l0 25 -145 0 -145 0 0 -25z"/>
<path d="M5100 1025 l0 -175 25 0 c24 0 25 2 25 70 l0 70 35 0 c33 0 36 -3 70
-70 33 -66 37 -70 69 -70 l34 0 -39 71 c-21 40 -39 73 -39 75 0 2 11 14 25 28
35 35 36 112 0 150 -23 24 -30 26 -115 26 l-90 0 0 -175z"/>
<path d="M5420 1025 l0 -175 25 0 25 0 0 175 0 175 -25 0 -25 0 0 -175z"/>
<path d="M5560 1025 l0 -175 25 0 c24 0 25 2 25 65 l0 65 66 0 c59 0 68 3 95
29 25 25 29 37 29 81 0 44 -4 56 -29 81 -28 28 -33 29 -120 29 l-91 0 0 -175z
m178 93 c11 -23 11 -33 0 -55 -12 -25 -19 -28 -71 -31 l-57 -3 0 61 0 61 57
-3 c52 -3 59 -6 71 -30z"/>
</g>
</svg>
