<svg id="Layer_1" xmlns="http://www.w3.org/2000/svg" xmlns:xlink="http://www.w3.org/1999/xlink" viewBox="0 0 120 190"><style>.st0{clip-path:url(#SVGID_2_);fill:none;stroke:#67e4a0;stroke-width:6;stroke-linecap:square;stroke-miterlimit:10}.st1{clip-path:url(#SVGID_4_)}.st2{clip-path:url(#SVGID_6_)}.st2,.st3{fill:#68e8b1}</style><defs><path id="SVGID_1_" d="M303 189.3h140v190H303z"/></defs><clipPath id="SVGID_2_"><use xlink:href="#SVGID_1_" overflow="visible"/></clipPath><path class="st0" d="M542.2 284.3v34.3"/><defs><path id="SVGID_3_" d="M60 0c33.1 0 60 26.9 60 60v70c0 33.1-26.9 60-60 60S0 163.1 0 130V60C0 26.9 26.9 0 60 0z"/></defs><clipPath id="SVGID_4_"><use xlink:href="#SVGID_3_" overflow="visible"/></clipPath><g class="st1"><defs><path id="SVGID_5_" d="M-11 0h140v190H-11z"/></defs><clipPath id="SVGID_6_"><use xlink:href="#SVGID_5_" overflow="visible"/></clipPath><path class="st2" d="M60 10c27.6 0 50 22.4 50 50v70c0 27.6-22.4 50-50 50s-50-22.4-50-50V60c0-27.6 22.4-50 50-50m0-10C26.9 0 0 26.9 0 60v70c0 33.1 26.9 60 60 60s60-26.9 60-60V60c0-33.1-26.9-60-60-60z"/></g><path class="st3" d="M60 77.4c-2.8 0-5-2.2-5-5V33c0-2.8 2.2-5 5-5s5 2.2 5 5v39.4c0 2.7-2.2 5-5 5z"/></svg>